<?xml version="1.0" encoding="UTF-8"?>
<svg xmlns:ns0="http://www.w3.org/2000/svg" xmlns="http://www.w3.org/2000/svg" viewBox="119 31 825 1008"><g id="g33"><ns0:path transform="scale(2 2)" d="M140.105 42.6998C145.679 41.2929 151.13 39.5171 156.687 38.076L156.988 38.0828C159.151 39.0549 160.129 44.6148 160.546 46.6367C165.681 71.5823 145.517 76.6058 142.582 87.3361C140.048 96.6006 147.652 101.893 152.998 107.862C163.834 119.959 164.193 137.212 153.51 149.791C147.326 157.072 138.145 162.709 144.061 173.302C138.516 174.739 132.742 175.945 127.089 176.87C115.841 152.693 142.38 143.336 144.219 129.629C145.886 117.206 109.639 99.743 130.383 73.2974C138.549 62.888 151.126 57.9689 140.105 42.6998Z" />
    <ns0:path transform="scale(2 2)" d="M208.202 42.6998C213.278 40.8511 219.198 39.2088 224.484 38.076C228.976 37.6407 232.442 62.4802 220.241 75.3187C205.606 90.7178 205.781 91.8228 221.016 108.936C232.411 121.736 232.315 137.984 220.135 150.808C212.871 158.456 206.677 161.875 211.498 173.302L194.832 176.011C183.859 153.298 210.852 142.382 212.321 130.434C213.869 117.845 177.69 101.641 198.757 73.2678C205.88 63.6749 220.2 56.932 208.202 42.6998Z" />
    <ns0:path transform="scale(2 2)" d="M277.153 42.6998C280.998 41.0489 288.655 38.7077 292.744 38.076C295.395 37.6899 296.767 46.1169 297.106 48.1151C301.635 74.7858 278.609 78.0299 278.708 91.2524C278.773 99.8579 286.075 103.836 290.801 109.946C300.679 122.72 299.277 139.104 288.088 150.796C279.641 159.622 276.379 159.856 278.751 173.302C273.92 174.46 268.93 175.031 264.055 176.011C261.335 176.555 261.141 168.625 261.076 166.896C260.281 145.743 277.78 143.809 280.135 130.6C282.509 117.287 245.192 100.648 268.526 71.575C276.278 61.9163 287.065 57.1215 277.153 42.6998Z" />
    <ns0:path transform="scale(2 2)" d="M328.612 399.373C322.931 423.625 310.271 464.741 281.507 470.519C274.996 471.827 267.79 471.249 261.164 471.247L168.954 471.238C146.843 471.236 129.9 475.717 113.252 458.074C81.6872 424.626 77.5087 363.381 77.5045 318.535L77.5061 226.927C77.5058 218.474 77.2403 209.943 77.5062 201.499C79.6321 201.76 82.0093 201.54 84.1601 201.529L142.873 201.499L142.873 268.055C138.84 269.747 119.19 283.49 115.615 287.15C112.882 289.947 113.843 293.892 113.878 297.519L113.902 350.706C114.77 352.023 115.75 352.875 117.057 353.752L158.208 353.769C161.541 353.769 182.206 354.831 184.027 352.919C186.615 350.202 185.548 344.53 185.536 341.151L185.513 300.048C185.52 296.137 185.814 292.129 185.508 288.235C177.858 281.535 166.72 274.91 158.264 268.055C158.509 245.877 157.857 223.665 158.264 201.499L335.454 201.499L335.454 225.001C338.677 225.192 341.898 225.049 345.125 225.029L362.125 224.995C393.188 224.997 418.224 234.545 430.574 265.943C435.957 279.888 435.26 319.91 434.354 337.005C433.082 361.012 419.239 383.182 397.445 393.522C382.265 400.724 369.358 399.38 353.296 399.376L337.886 399.379C334.8 399.392 331.693 399.538 328.612 399.373ZM335.454 254.275L335.448 311.974C335.458 332.767 334.716 349.556 333.129 369.999L357.385 370.008C371.548 370.01 382.119 371.173 393.55 361.036C406.382 348.128 405.251 335.406 405.257 318.469L405.243 294.397C405.212 282.605 403.067 273.32 394.461 264.788C380.113 250.563 354.983 254.208 335.454 254.275Z" />
    <ns0:path transform="scale(2 2)" d="M130.123 295.62C132.713 292.749 135.989 290.665 139.105 288.407L149.309 280.958C150.683 281.409 167.359 293.816 169.621 295.62C169.674 299.61 169.561 303.601 169.621 307.593C163.223 307.701 156.807 307.598 150.407 307.593C143.656 307.483 136.865 307.865 130.123 307.593C130.181 303.628 130.326 299.579 130.123 295.62Z" />
  </g></svg>