<?xml version="1.0" encoding="UTF-8"?>
<svg xmlns:ns0="http://www.w3.org/2000/svg" xmlns="http://www.w3.org/2000/svg" viewBox="841 299 116 159"><g id="group_8"><ns0:path fill="#000000" opacity="1.00" d=" M 894.46 306.61 C 897.92 305.68 902.00 306.92 903.83 310.14 C 915.06 329.13 926.80 347.84 938.33 366.66 C 946.79 380.57 947.60 398.76 940.15 413.27 C 931.18 431.48 910.26 443.51 889.93 439.92 C 870.76 437.14 854.08 421.91 849.91 402.96 C 846.38 388.48 850.25 372.82 858.80 360.80 C 869.11 344.96 878.96 328.84 888.52 312.55 C 889.98 310.17 891.57 307.38 894.46 306.61 M 876.42 350.39 C 874.39 351.39 873.59 353.75 872.48 355.58 C 868.28 364.10 862.04 371.79 860.18 381.31 C 855.37 400.48 867.01 423.19 887.00 427.33 C 891.21 429.02 895.10 423.32 891.75 420.27 C 887.18 417.83 881.84 416.68 878.00 412.98 C 867.60 404.44 865.53 388.73 870.89 376.85 C 874.19 369.75 878.73 363.33 882.54 356.52 C 884.91 352.89 879.98 348.64 876.42 350.39 Z" />
    <ns0:path fill="#ffffff" opacity="1.00" d=" M 876.42 350.39 C 879.98 348.64 884.91 352.89 882.54 356.52 C 878.73 363.33 874.19 369.75 870.89 376.85 C 865.53 388.73 867.60 404.44 878.00 412.98 C 881.84 416.68 887.18 417.83 891.75 420.27 C 895.10 423.32 891.21 429.02 887.00 427.33 C 867.01 423.19 855.37 400.48 860.18 381.31 C 862.04 371.79 868.28 364.10 872.48 355.58 C 873.59 353.75 874.39 351.39 876.42 350.39 Z" />
  </g></svg>