<?xml version="1.0" encoding="UTF-8"?>
<svg xmlns:ns0="http://www.w3.org/2000/svg" xmlns="http://www.w3.org/2000/svg" viewBox="588 65 143 114"><g id="group_7"><ns0:path opacity="1.00" d=" M 619.55 75.61 C 629.38 69.48 642.45 77.56 644.03 88.36 C 642.88 88.80 641.74 89.24 640.61 89.68 C 640.38 94.35 639.72 99.16 636.98 103.10 C 634.95 106.52 630.25 105.55 627.23 107.44 C 624.65 112.63 627.84 117.69 631.57 121.21 C 634.47 115.76 637.41 107.22 644.91 107.74 C 649.52 110.45 654.95 110.28 659.79 112.15 C 672.90 120.62 679.18 136.16 692.14 144.85 C 695.80 146.99 697.97 150.55 699.85 154.21 C 705.07 158.16 711.77 154.74 717.59 154.55 C 718.16 159.78 713.18 162.67 708.76 163.57 C 704.72 164.32 701.03 167.81 696.76 166.25 C 694.96 164.18 693.76 161.69 692.30 159.39 C 689.91 160.98 686.76 165.58 684.00 162.03 C 677.53 154.48 671.42 146.60 665.01 139.00 C 665.92 142.60 667.09 146.12 668.19 149.67 C 664.46 150.19 662.42 153.20 664.03 156.79 C 668.48 160.50 674.63 160.35 679.87 162.20 C 682.25 163.65 680.73 167.85 678.00 167.63 C 671.02 168.40 663.97 168.41 656.95 168.39 C 651.60 168.67 653.70 161.89 652.93 158.53 C 649.11 158.53 646.68 156.09 646.01 152.45 C 641.44 156.80 638.03 162.21 633.58 166.62 C 629.34 168.43 624.48 167.48 619.98 167.68 C 616.32 167.37 611.58 168.42 609.19 164.84 C 602.16 155.44 593.85 145.44 594.06 133.01 C 594.67 119.69 600.49 104.81 613.82 99.63 C 612.83 91.40 611.94 81.12 619.55 75.61 Z" />
  </g></svg>