<?xml version="1.0" encoding="UTF-8"?>
<svg xmlns:ns0="http://www.w3.org/2000/svg" xmlns="http://www.w3.org/2000/svg" viewBox="252 222 132 140"><g id="group_13"><ns0:path fill="currentColor" fill-rule="evenodd" opacity="1.00" d=" M 331.60 235.59 C 340.57 228.08 357.41 230.34 359.58 243.36 C 362.44 244.64 365.85 245.85 367.06 249.06 C 372.00 259.16 362.38 271.57 371.08 280.43 C 368.01 283.29 363.94 282.16 360.40 281.02 C 366.38 302.83 359.08 326.39 346.44 344.47 C 343.50 349.65 336.93 348.00 332.01 348.33 C 328.79 348.06 324.15 349.16 322.62 345.40 C 318.43 336.83 315.05 327.86 311.90 318.86 C 307.32 322.98 303.02 327.41 298.67 331.78 C 296.81 331.18 294.96 330.55 293.11 329.94 C 291.09 331.89 288.45 333.54 287.38 336.24 C 287.47 339.51 288.12 342.73 288.25 346.00 C 278.04 346.53 267.77 346.34 257.58 345.60 C 260.47 341.37 266.27 341.31 269.75 337.75 C 275.05 332.65 280.82 327.94 285.18 321.95 C 281.00 313.40 293.66 310.33 293.23 302.20 C 292.44 302.95 291.67 303.71 290.89 304.47 C 284.20 295.86 290.93 285.18 292.77 276.00 C 294.42 271.23 294.45 263.54 301.03 263.03 C 312.62 261.88 323.70 268.21 335.40 266.55 C 332.85 264.89 329.16 263.65 329.29 259.97 C 328.03 252.13 323.79 241.32 331.60 235.59 Z M 351.57 267.05 C 353.00 263.75 355.64 261.19 358.14 258.69 C 358.58 264.95 357.76 271.21 357.31 277.45 C 355.00 274.24 352.63 270.92 351.57 267.05 Z M 303.74 274.41 C 312.13 278.34 320.32 282.79 329.47 284.78 C 328.55 290.29 328.00 295.86 327.14 301.38 C 324.76 297.06 323.14 292.03 319.24 288.80 C 314.96 286.19 310.35 289.79 306.57 291.68 C 305.07 286.05 303.12 280.31 303.74 274.41 Z M 298.02 300.83 C 294.25 298.72 296.35 292.50 297.94 289.22 C 299.69 292.59 302.67 298.49 298.02 300.83 Z" />
  </g></svg>