<?xml version="1.0" encoding="UTF-8"?>
<svg xmlns:ns0="http://www.w3.org/2000/svg" xmlns="http://www.w3.org/2000/svg" viewBox="416 380 128 157"><g id="group_17"><ns0:path fill="currentColor" fill-rule="evenodd" opacity="1.00" d=" M 464.77 391.68 C 469.84 387.34 477.72 387.44 483.81 389.10 C 484.96 392.18 485.74 395.43 487.35 398.33 C 491.15 398.50 494.93 399.06 498.61 400.02 C 496.84 405.33 490.71 405.40 486.45 407.49 C 484.48 409.62 483.16 412.25 481.69 414.73 C 488.85 417.80 492.07 425.62 492.66 432.92 C 492.79 438.05 487.53 442.38 489.78 447.51 C 491.84 452.45 492.43 458.02 490.45 463.10 C 498.87 463.83 511.78 461.49 515.80 471.05 C 518.53 482.78 519.71 495.07 524.87 506.12 C 526.49 510.14 530.37 514.78 526.48 518.68 C 529.06 519.21 532.54 518.96 533.51 522.08 C 527.36 522.73 521.16 522.61 515.00 522.33 C 507.37 521.77 499.75 524.24 492.17 522.93 C 487.06 521.42 487.02 515.43 487.69 511.13 C 487.06 510.94 485.78 510.55 485.15 510.36 C 486.85 500.63 490.52 491.40 494.78 482.53 C 490.76 481.78 486.67 481.54 482.59 481.59 C 483.03 495.33 483.65 509.06 483.88 522.81 C 481.70 522.80 479.53 522.79 477.36 522.78 C 477.56 510.64 476.80 498.52 476.74 486.39 C 470.05 486.34 463.36 486.34 456.68 486.22 C 457.52 498.37 457.34 510.54 457.57 522.70 C 455.49 522.76 453.41 522.81 451.33 522.85 C 451.09 510.67 450.38 498.50 450.56 486.31 C 443.91 486.46 437.27 486.64 430.64 487.04 C 430.43 498.98 431.88 510.90 431.26 522.84 C 429.26 522.83 427.26 522.82 425.27 522.81 C 424.13 485.79 423.02 448.77 421.93 411.75 C 423.73 411.74 425.53 411.74 427.34 411.75 C 427.57 414.57 427.78 417.41 428.00 420.24 C 435.53 419.79 443.06 419.36 450.61 419.59 C 450.70 416.86 450.80 414.14 450.96 411.42 C 452.90 411.36 454.85 411.30 456.81 411.25 C 457.06 413.88 457.30 416.51 457.56 419.15 C 461.96 417.82 465.58 414.94 465.43 409.94 C 461.47 409.60 456.96 410.13 453.94 406.98 C 456.81 404.29 460.65 403.08 463.74 400.71 C 464.44 397.74 463.97 394.61 464.77 391.68 Z M 438.19 426.09 C 439.48 426.02 440.78 425.95 442.09 425.89 C 442.67 443.51 443.96 461.13 443.91 478.77 C 442.46 478.68 441.01 478.60 439.57 478.52 C 439.29 461.04 438.46 443.57 438.19 426.09 Z M 447.52 425.42 C 448.59 425.42 450.72 425.41 451.79 425.41 C 451.78 429.85 450.80 434.18 449.73 438.47 C 447.80 447.38 451.20 456.20 451.88 465.04 C 452.33 466.95 450.92 468.25 449.58 469.30 C 448.46 454.70 447.92 440.06 447.52 425.42 Z M 428.73 426.57 C 430.00 426.71 431.28 426.86 432.55 427.03 C 432.81 444.55 434.06 462.08 434.02 479.59 C 432.82 479.59 431.62 479.60 430.42 479.62 C 429.71 461.94 429.67 444.24 428.73 426.57 Z M 506.52 503.82 C 508.03 509.34 508.51 515.08 508.47 520.79 C 503.23 520.57 498.55 517.24 497.27 512.05 C 500.27 512.62 503.24 513.36 506.21 514.11 C 506.21 510.67 506.25 507.24 506.52 503.82 Z" />
  </g></svg>