<?xml version="1.0" encoding="UTF-8"?>
<svg xmlns:ns0="http://www.w3.org/2000/svg" xmlns="http://www.w3.org/2000/svg" viewBox="575 425 143 118"><g id="group_21"><ns0:path fill="currentColor" opacity="1.00" d=" M 581.44 448.01 C 581.10 436.99 595.52 429.87 604.55 435.40 C 607.42 440.50 609.30 446.20 612.84 450.96 C 612.12 454.42 611.67 457.94 611.40 461.47 C 608.92 463.28 606.49 465.15 604.11 467.10 C 612.05 474.05 623.83 473.88 633.86 474.66 C 649.19 467.87 662.81 456.57 679.44 453.00 C 678.42 454.33 677.37 455.64 676.30 456.93 C 679.76 455.99 683.78 454.08 686.98 456.73 C 684.30 458.74 681.25 460.58 679.85 463.77 C 675.99 464.58 672.03 464.50 668.15 465.07 C 664.89 468.30 662.51 472.36 658.98 475.37 C 667.51 486.65 676.80 497.33 685.71 508.31 C 687.98 510.43 686.08 513.39 685.92 515.94 C 688.35 521.32 694.37 523.01 699.56 524.50 C 701.83 525.28 705.67 526.92 704.17 529.94 C 693.76 531.76 682.98 530.36 672.43 530.74 C 672.29 529.10 672.15 527.46 672.02 525.84 C 670.86 527.24 669.73 528.67 668.60 530.10 C 661.19 522.25 655.94 512.63 648.50 504.82 C 642.86 513.47 636.76 522.17 628.19 528.17 C 621.51 532.20 611.92 531.39 606.67 525.34 C 596.98 515.19 587.71 503.58 584.34 489.67 C 582.18 480.85 585.71 472.19 588.47 463.97 C 588.41 457.86 581.32 454.32 581.44 448.01 Z" />
  </g></svg>