<?xml version="1.0" encoding="UTF-8"?>
<svg xmlns:ns0="http://www.w3.org/2000/svg" xmlns="http://www.w3.org/2000/svg" viewBox="941 576 172 133"><g id="group_26"><ns0:path fill="currentColor" fill-rule="evenodd" opacity="1.00" d=" M 971.56 586.59 C 979.82 582.23 993.44 583.51 996.18 594.07 C 995.06 599.11 995.26 604.27 997.65 608.95 C 995.31 613.39 994.72 620.15 988.17 619.64 C 988.23 619.90 988.35 620.43 988.41 620.70 C 1001.76 618.50 1016.15 618.88 1028.71 624.26 C 1029.61 628.52 1031.50 632.60 1031.76 636.99 C 1031.40 642.70 1026.09 646.11 1022.37 649.78 C 1024.30 650.21 1026.98 650.31 1026.82 652.99 C 1027.20 660.49 1030.34 668.28 1027.11 675.55 C 1032.43 676.01 1036.70 679.27 1041.45 681.26 C 1047.55 682.52 1053.83 682.73 1059.98 683.76 C 1064.54 684.92 1067.23 679.09 1071.84 680.12 C 1076.98 680.14 1079.18 685.95 1083.98 686.83 C 1088.74 688.12 1094.26 689.56 1096.93 694.12 C 1097.83 697.60 1093.25 697.38 1091.02 697.39 C 1045.31 697.11 999.59 697.91 953.90 697.04 C 954.24 694.64 954.76 692.28 955.56 690.00 C 948.18 676.53 949.49 660.69 950.26 645.92 C 950.13 632.66 960.60 623.02 967.81 613.03 C 962.74 604.69 963.49 592.78 971.56 586.59 Z M 996.80 637.93 C 1001.48 636.20 1006.58 635.59 1011.55 636.03 C 1008.47 637.55 1004.83 637.23 1001.82 638.81 C 998.81 641.16 996.75 644.45 994.04 647.12 C 994.73 644.01 995.03 640.65 996.80 637.93 Z M 1005.14 669.62 C 1007.13 672.78 1008.78 676.15 1010.06 679.67 C 1006.75 680.63 1003.41 681.48 1000.03 682.14 C 1001.44 677.85 1003.15 673.66 1005.14 669.62 Z" />
  </g></svg>