<?xml version="1.0" encoding="UTF-8"?>
<svg xmlns:ns0="http://www.w3.org/2000/svg" xmlns="http://www.w3.org/2000/svg" viewBox="568 590 183 122"><g id="group_27"><ns0:path fill="currentColor" opacity="1.00" d=" M 593.54 603.50 C 600.61 595.80 615.39 597.21 620.56 606.42 C 622.76 611.03 620.79 615.90 617.26 619.12 C 616.52 624.00 613.70 627.88 610.50 631.47 C 608.41 631.68 606.33 631.90 604.27 632.17 C 606.32 636.77 610.73 640.04 611.66 645.19 C 612.91 651.23 615.51 656.97 619.98 661.32 C 626.83 657.29 634.69 658.12 642.12 659.66 C 641.10 660.74 640.07 661.82 639.05 662.91 C 642.77 663.20 647.20 662.96 649.88 666.09 C 653.17 669.51 655.56 674.99 661.03 675.10 C 676.64 676.61 692.34 677.19 707.78 680.16 C 707.95 681.87 708.12 683.59 708.31 685.32 C 718.33 685.12 721.56 674.63 728.21 669.17 C 730.23 666.85 733.99 669.23 733.80 671.99 C 734.68 682.30 730.79 693.98 721.76 699.71 C 717.44 699.55 713.35 697.53 708.97 697.83 C 706.21 698.24 703.96 700.43 701.07 700.27 C 683.05 700.11 664.95 700.92 647.06 698.32 C 635.20 699.59 623.22 700.11 611.28 700.61 C 605.32 701.61 598.10 702.29 593.51 697.52 C 588.63 691.83 583.36 685.86 581.84 678.28 C 579.99 669.18 577.30 660.21 576.31 650.97 C 575.98 640.49 582.63 631.66 589.22 624.20 C 594.63 618.37 588.59 609.47 593.54 603.50 Z" />
  </g></svg>