<?xml version="1.0" encoding="UTF-8"?>
<svg xmlns:ns0="http://www.w3.org/2000/svg" xmlns="http://www.w3.org/2000/svg" viewBox="243 597 124 117"><g id="group_28"><ns0:path fill="currentColor" opacity="1.00" d=" M 275.05 621.28 C 277.14 613.54 280.91 602.27 291.01 603.48 C 301.47 603.54 308.10 614.14 306.94 623.73 C 305.03 632.12 292.97 632.20 291.72 640.95 C 293.10 649.98 303.48 652.04 311.00 653.12 C 317.19 651.53 322.43 647.36 327.31 643.36 C 329.32 647.99 333.17 653.04 330.65 658.22 C 327.08 659.12 323.61 660.77 321.86 664.19 C 320.52 663.85 319.18 663.52 317.85 663.22 C 322.62 669.57 329.67 673.50 336.02 678.04 C 335.85 680.58 334.10 684.28 337.39 685.53 C 342.18 688.83 349.11 684.59 353.29 688.79 C 355.88 693.89 349.28 696.36 345.56 697.63 C 338.61 700.03 329.25 703.64 323.00 698.13 C 322.01 698.50 321.02 698.88 320.04 699.27 C 313.43 691.68 307.65 683.40 300.68 676.11 C 290.21 687.15 277.97 698.71 261.97 699.89 C 258.84 699.88 253.79 701.52 252.53 697.50 C 247.96 686.28 247.98 673.86 248.93 661.97 C 250.07 651.06 253.46 639.46 262.16 632.16 C 266.19 628.25 272.15 626.20 275.05 621.28 Z" />
  </g></svg>