<?xml version="1.0" encoding="UTF-8"?>
<svg xmlns:ns0="http://www.w3.org/2000/svg" xmlns="http://www.w3.org/2000/svg" viewBox="2755 2043 457 446"><g id="group_4"><ns0:path fill="#000000" d="M 2848.167969 2296.949219 C 2823.226562 2305.566406 2808.601562 2318.632812 2796.023438 2343.539062 C 2775.199219 2384.773438 2783.164062 2426.394531 2814.953125 2442.425781 C 2829.339844 2449.679688 2830.273438 2449.722656 2980.464844 2449.722656 C 3130.671875 2449.722656 3131.585938 2449.683594 3145.898438 2442.425781 C 3163.859375 2433.324219 3172.542969 2418.929688 3172.542969 2398.265625 C 3172.542969 2369.414062 3154.828125 2344.394531 3123.191406 2328.566406 L 3100.519531 2317.222656 L 3059.136719 2319.042969 C 3009.652344 2321.21875 2976.503906 2317.273438 2916.027344 2302.007812 C 2891.714844 2295.871094 2870.367188 2290.890625 2868.582031 2290.933594 C 2866.800781 2290.984375 2857.613281 2293.6875 2848.167969 2296.949219" fill-opacity="1" fill-rule="evenodd" />
    <ns0:path fill="#000000" d="M 2901.378906 2178.800781 C 2877.964844 2188.445312 2865.511719 2199.953125 2858.429688 2218.496094 C 2851.769531 2235.941406 2856.03125 2254.410156 2869.09375 2264.683594 C 2879.628906 2272.972656 2918.054688 2285.261719 2961.742188 2294.316406 C 3003.285156 2302.929688 3075.019531 2303.65625 3105.316406 2295.769531 C 3132.085938 2288.808594 3145.851562 2274.351562 3145.851562 2253.191406 C 3145.851562 2224.589844 3127.042969 2203.324219 3090.671875 2190.8125 C 3076.300781 2185.867188 3066.664062 2184.984375 3040.457031 2186.214844 C 3016.390625 2187.351562 2997.84375 2185.976562 2968.546875 2180.890625 C 2946.835938 2177.121094 2927.132812 2173.339844 2924.769531 2172.492188 C 2922.40625 2171.636719 2911.878906 2174.480469 2901.378906 2178.800781" fill-opacity="1" fill-rule="evenodd" />
    <ns0:path fill="#000000" d="M 2926.957031 2068.125 C 2894 2079.054688 2876.691406 2095.890625 2876.691406 2117.007812 C 2876.691406 2133.527344 2880.871094 2140 2895.242188 2145.730469 C 2912.128906 2152.460938 2983.371094 2166.765625 3012.890625 2169.347656 C 3039.757812 2171.699219 3074.164062 2166.824219 3086.152344 2158.96875 C 3102.355469 2148.351562 3102.652344 2120.53125 3086.746094 2103.5 C 3075.582031 2091.546875 3065.410156 2087.34375 3021.9375 2076.707031 C 2973.53125 2064.863281 2944.640625 2062.253906 2926.957031 2068.125" fill-opacity="1" fill-rule="evenodd" />
  </g></svg>