<?xml version="1.0" encoding="UTF-8"?>
<svg xmlns:ns0="http://www.w3.org/2000/svg" xmlns="http://www.w3.org/2000/svg" viewBox="3390 1488 437 466"><g id="group_10"><ns0:path fill="#000000" d="M 3606.835938 1776.335938 C 3604.546875 1789.949219 3601.527344 1801.089844 3600.125 1801.089844 C 3598.722656 1801.089844 3595.972656 1791.4375 3594.019531 1779.636719 C 3592.066406 1767.839844 3589.691406 1757.414062 3588.753906 1756.472656 C 3584.175781 1751.894531 3549.308594 1795.238281 3542.710938 1813.707031 C 3530.773438 1847.113281 3543.476562 1884.433594 3571.753906 1899.007812 C 3599.144531 1913.128906 3633.890625 1904.035156 3650.929688 1878.289062 C 3658.722656 1866.507812 3659.851562 1861.648438 3659.851562 1839.832031 C 3659.851562 1816.273438 3659.160156 1813.859375 3647.765625 1797.433594 C 3641.121094 1787.847656 3630.128906 1773.613281 3623.339844 1765.796875 L 3610.996094 1751.578125 L 3606.835938 1776.335938 Z" fill-opacity="1" fill-rule="evenodd" />
    <ns0:path fill="#000000" d="M 3579.222656 1517.054688 C 3551.363281 1527.3125 3536.03125 1553.769531 3539.113281 1586.25 C 3540.085938 1596.496094 3541.855469 1607.3125 3543.046875 1610.28125 C 3544.238281 1613.253906 3539.394531 1610.152344 3532.285156 1603.390625 C 3518.785156 1590.542969 3495.339844 1580.554688 3478.695312 1580.554688 C 3465.226562 1580.554688 3442.296875 1592.261719 3434.605469 1603.066406 C 3409.0625 1638.9375 3425.484375 1683.421875 3471.0625 1701.8125 L 3489.816406 1709.378906 L 3474.957031 1713.539062 C 3443.863281 1722.246094 3421.496094 1748.699219 3421.496094 1776.765625 C 3421.496094 1794.339844 3433.003906 1816.265625 3447.019531 1825.410156 C 3463.898438 1836.421875 3479.285156 1838.339844 3500.726562 1832.105469 C 3526.304688 1824.667969 3544.027344 1806.605469 3557.191406 1774.5625 C 3572.140625 1738.175781 3572.171875 1738.21875 3540.671875 1749.546875 L 3513.917969 1759.171875 L 3531.753906 1742.976562 C 3541.566406 1734.066406 3550.6875 1726.714844 3552.023438 1726.636719 C 3553.359375 1726.558594 3554.457031 1725.136719 3554.457031 1723.472656 C 3554.457031 1719.5625 3545.59375 1716.84375 3517.363281 1712.082031 L 3494.460938 1708.21875 L 3524.457031 1703.914062 C 3540.957031 1701.546875 3554.464844 1698.730469 3554.476562 1697.648438 C 3554.492188 1696.570312 3545.367188 1687.347656 3534.210938 1677.148438 L 3513.917969 1658.613281 L 3540.671875 1668.195312 C 3560.585938 1675.332031 3567.425781 1676.660156 3567.425781 1673.398438 C 3567.425781 1670.984375 3563.132812 1658.59375 3557.882812 1645.867188 C 3552.632812 1633.136719 3548.820312 1622.714844 3549.410156 1622.714844 C 3550 1622.714844 3558.921875 1633.164062 3569.234375 1645.925781 C 3590.234375 1671.921875 3590.636719 1671.796875 3594.777344 1638.171875 C 3596.035156 1627.945312 3598.25 1618.84375 3599.695312 1617.949219 C 3601.144531 1617.054688 3603.863281 1626.664062 3605.738281 1639.300781 C 3607.613281 1651.941406 3609.878906 1663.007812 3610.769531 1663.90625 C 3613.695312 1666.828125 3619.210938 1661.480469 3635.59375 1639.835938 C 3653.195312 1616.585938 3654.195312 1616.046875 3646.765625 1633.832031 C 3642.867188 1643.257812 3639.046875 1652.714844 3635.304688 1662.203125 C 3627.816406 1681.199219 3625.5625 1680.828125 3663.089844 1666.828125 L 3685.792969 1658.359375 L 3665.5 1677.023438 C 3654.34375 1687.289062 3645.21875 1696.570312 3645.234375 1697.648438 C 3645.246094 1698.730469 3658.742188 1701.542969 3675.230469 1703.910156 C 3707.347656 1708.511719 3706.289062 1710.699219 3669.746094 1715.265625 C 3644.957031 1718.363281 3641.828125 1721.261719 3653.488281 1730.335938 C 3658.769531 1734.445312 3668.199219 1742.5625 3674.441406 1748.371094 L 3685.792969 1758.933594 L 3660.703125 1750.238281 C 3646.902344 1745.457031 3634.734375 1742.421875 3633.664062 1743.492188 C 3632.59375 1744.5625 3636.53125 1758.109375 3642.410156 1773.589844 C 3651.027344 1796.277344 3655.902344 1804.203125 3667.542969 1814.449219 C 3684.273438 1829.175781 3711.117188 1838.441406 3727.195312 1835.035156 C 3764.464844 1827.144531 3786.371094 1791.851562 3775.132812 1757.796875 C 3769.832031 1741.738281 3743.546875 1718.800781 3724.242188 1713.394531 L 3708.847656 1709.082031 L 3723.261719 1704.335938 C 3768.65625 1689.394531 3789.371094 1651.054688 3771.738281 1614.628906 C 3763.90625 1598.449219 3751.089844 1588.4375 3731.511719 1583.199219 C 3712.484375 1578.109375 3687.851562 1585.359375 3668.824219 1601.644531 L 3655.488281 1613.0625 L 3658.839844 1600.914062 C 3663.484375 1584.101562 3659.957031 1559.75 3650.550781 1543.703125 C 3636.621094 1519.925781 3604.253906 1507.832031 3579.21875 1517.054688" fill-opacity="1" fill-rule="evenodd" />
  </g></svg>