<?xml version="1.0" encoding="UTF-8"?>
<svg xmlns:ns0="http://www.w3.org/2000/svg" xmlns="http://www.w3.org/2000/svg" viewBox="10 31 1044 1017"><g id="g30"><ns0:path transform="scale(2 2)" d="M172.255 38.1201L176.594 38.1201L212.736 38.1331C218.351 38.1308 225.141 37.5244 230.596 38.3266C237.843 39.3922 243.353 48.0323 239.839 54.8495C237.901 58.6096 233.03 63.8408 230.233 67.4253C222.233 77.6754 214.1 87.8726 206.269 98.2477C218.227 97.9272 230.281 98.2313 242.249 98.2477C241.976 100.898 242.22 103.742 242.227 106.415L242.249 122.49C240.857 122.543 239.456 122.5 238.062 122.49L198.613 122.494C193.319 122.493 184.649 123 179.637 122.261C172.059 121.144 167.073 112.383 170.385 105.389C174.496 96.7079 197.511 70.437 204.383 61.2594C193.96 61.7051 182.773 61.268 172.255 61.2594L172.255 38.1201Z" />
    <ns0:path transform="scale(2 2)" d="M64.2599 122.49L64.2599 98.999L103.771 98.9901C112.83 98.9895 130.654 95.6913 133.752 107.658C135.491 114.374 129.958 119.359 126.284 124.27L111.617 143.97C108.464 148.159 104.87 152.122 102.379 156.765L129.75 156.765L129.782 172.134C129.801 175.07 129.974 178.098 129.75 181.024C117.811 181.348 105.771 181.038 93.8232 181.038L80.996 181.036C76.8398 181.034 72.416 181.593 68.7446 179.251C56.3307 171.333 68.356 159.145 73.5514 152.185C80.6366 142.694 88.8277 132.223 95.3338 122.49L64.2599 122.49Z" />
    <ns0:path transform="scale(2 2)" d="M185.789 166.298C202.67 154.77 233.208 148.528 253.094 147.874C260.777 147.383 268.976 148.208 276.604 149.137C362.64 159.62 428.497 241.819 417.661 328.234C407.023 413.069 324.19 479.64 239.441 468.948C236.496 469.165 228.945 467.437 225.826 466.823C122.24 446.43 61.4325 333.57 111.126 236.878C114.057 231.175 117.353 225.075 121.403 220.096C127.842 225.58 133.471 229.923 141.885 231.929C180.164 241.056 207.589 201.067 185.789 166.298ZM214.448 286.171C211.304 288.632 208.54 291.528 205.382 293.961C187.258 307.921 165.859 300.967 150.902 286.171C145.097 290.682 140.645 297.054 134.712 301.249C138.665 305.944 142.968 308.963 146.884 313.222C163.466 323.193 177.614 327.743 197.545 322.843C209.444 319.917 223.522 311.768 230.217 301.249C226.563 298.148 217.402 287.671 214.448 286.171ZM361.72 286.171C345.127 305.967 314.211 306.375 297.591 286.171C292.718 291.449 287.28 296.474 281.91 301.249C285.953 305.595 289.79 309.787 294.684 313.222C323.204 332.305 355.827 326.994 377.766 301.249C372.164 296.532 367.283 290.957 361.72 286.171ZM254.803 348.147C245.504 348.843 235.487 351.841 228.388 358.156C233.257 363.997 238.567 369.725 243.115 375.803C261.392 364.399 284.462 377.971 279.156 398.466C275.272 413.467 259.305 418.32 246.04 413.161L246.04 428.812C246.028 431.56 246.012 434.307 246.04 437.055C260.682 439.232 271.894 438.197 284.176 429.072C321.39 401.423 297.242 344.734 254.803 348.147Z" />
    <ns0:path transform="scale(2 2)" d="M54.9721 343.814C27.7571 322.803 40.5218 276.699 72.9457 274.219L73.3611 274.171C73.8692 275.634 72.5658 279.144 72.3455 280.838C69.2307 304.784 69.8276 328.895 75.3384 352.495C67.5218 351.215 61.2908 348.579 54.9721 343.814Z" />
    <ns0:path transform="scale(2 2)" d="M435.509 352.495C443.943 320.408 441.682 305.092 437.684 274.503L437.649 274.219C465.861 274.636 481.693 312.532 463.208 337.402C461.509 339.688 459.39 341.612 457.586 343.814C446.564 349.466 447.51 349.56 435.509 352.495Z" />
  </g></svg>