<?xml version="1.0" encoding="UTF-8"?>
<svg xmlns:ns0="http://www.w3.org/2000/svg" xmlns="http://www.w3.org/2000/svg" viewBox="2167 1540 454 403"><g id="group_15"><ns0:path fill="#000000" d="M 2470.960938 1562.378906 C 2421.109375 1576.726562 2387.695312 1610.542969 2377.132812 1657.335938 C 2373.648438 1672.761719 2375.492188 1700.550781 2379.992188 1700.550781 C 2381.265625 1700.550781 2388.753906 1691.695312 2396.636719 1680.871094 C 2418.390625 1650.996094 2450.523438 1626.085938 2484.300781 1612.914062 C 2505.597656 1604.605469 2505.570312 1604.640625 2474.046875 1625.679688 C 2433.90625 1652.46875 2404.734375 1688.136719 2372.234375 1750.167969 L 2355.585938 1781.945312 L 2350.027344 1767.390625 C 2342.910156 1748.75 2314.695312 1701.730469 2303.332031 1689.574219 C 2298.523438 1684.425781 2286.039062 1673.847656 2275.585938 1666.0625 C 2253.980469 1649.964844 2254.121094 1648.542969 2276.195312 1659.730469 C 2296.023438 1669.777344 2324.046875 1694.976562 2335.546875 1713.101562 L 2344.539062 1727.265625 L 2346.738281 1718.503906 C 2349.984375 1705.5625 2346.125 1680.074219 2338.710938 1665.546875 C 2328.84375 1646.207031 2303.035156 1624.761719 2281.027344 1617.621094 C 2259.953125 1610.785156 2209.882812 1609.515625 2195.433594 1615.453125 C 2187.320312 1618.785156 2187.144531 1619.480469 2189.433594 1638.898438 C 2192.871094 1668.042969 2204.554688 1701.457031 2218.097656 1720.875 C 2238.691406 1750.402344 2276.59375 1767.304688 2305.195312 1759.722656 C 2311.847656 1757.957031 2319.351562 1755.960938 2321.871094 1755.289062 C 2328.386719 1753.546875 2342.148438 1797.699219 2342.710938 1822.171875 C 2342.957031 1832.875 2341.871094 1856.589844 2340.300781 1874.871094 L 2337.441406 1908.113281 L 2358.441406 1908.113281 C 2369.996094 1908.113281 2380.136719 1907.425781 2380.976562 1906.585938 C 2381.816406 1905.746094 2381.128906 1892.972656 2379.449219 1878.207031 C 2375.800781 1846.21875 2380.320312 1799.808594 2390.125 1768.578125 C 2399.8125 1737.695312 2399.359375 1738.074219 2419.132812 1744.542969 C 2441.972656 1752.011719 2472.132812 1749.5 2495.230469 1738.199219 C 2541.808594 1715.40625 2574.476562 1657.992188 2580.472656 1588.363281 C 2582.238281 1567.855469 2581.792969 1565.082031 2576.34375 1562.738281 C 2565.289062 1557.980469 2487.164062 1557.714844 2470.960938 1562.378906" fill-opacity="1" fill-rule="evenodd" />
  </g></svg>