<?xml version="1.0" encoding="UTF-8"?>
<svg xmlns:ns0="http://www.w3.org/2000/svg" xmlns="http://www.w3.org/2000/svg" viewBox="2159 428 480 482"><g id="group_23"><ns0:path fill="#000000" d="M 2361.070312 792.082031 C 2361.070312 794.371094 2377.453125 841.847656 2385.824219 863.816406 C 2387.542969 868.320312 2415.601562 802.769531 2416.019531 793.277344 C 2416.148438 790.339844 2408.621094 789.222656 2388.632812 789.222656 C 2373.472656 789.222656 2361.070312 790.507812 2361.070312 792.082031" fill-opacity="1" fill-rule="evenodd" />
    <ns0:path fill="#000000" d="M 2293.3125 777.0625 C 2286.402344 812.105469 2282.875 835.34375 2284.261719 836.734375 C 2285.050781 837.515625 2299.984375 826.148438 2317.445312 811.460938 L 2349.199219 784.761719 L 2335.371094 778.886719 C 2327.765625 775.65625 2317.441406 770.09375 2312.429688 766.523438 C 2307.417969 762.953125 2301.820312 760.035156 2299.996094 760.035156 C 2298.171875 760.035156 2295.160156 767.699219 2293.3125 777.0625" fill-opacity="1" fill-rule="evenodd" />
    <ns0:path fill="#000000" d="M 2458.355469 770.015625 C 2449.921875 775.054688 2441.480469 780.082031 2433.03125 785.097656 C 2430.082031 786.835938 2438.347656 795.332031 2460.121094 812.945312 C 2477.355469 826.878906 2491.960938 837.773438 2492.585938 837.152344 C 2493.742188 835.992188 2481.867188 759.71875 2480.300781 758.25 C 2479.824219 757.804688 2469.949219 763.101562 2458.355469 770.015625" fill-opacity="1" fill-rule="evenodd" />
    <ns0:path fill="#000000" d="M 2508.03125 715.179688 C 2502.824219 724.6875 2496.503906 735.683594 2493.988281 739.621094 C 2491.46875 743.554688 2490.164062 747.523438 2491.089844 748.445312 C 2493.808594 751.167969 2568.617188 762.386719 2568.617188 760.070312 C 2568.617188 758.355469 2529.703125 710.667969 2520.074219 700.585938 C 2518.660156 699.101562 2513.238281 705.671875 2508.03125 715.179688" fill-opacity="1" fill-rule="evenodd" />
    <ns0:path fill="#000000" d="M 2231.097656 731.355469 C 2209.039062 758.335938 2205.601562 763.957031 2212.085938 762.429688 C 2216.441406 761.402344 2235.714844 758.039062 2254.921875 754.949219 C 2289.160156 749.445312 2289.753906 749.207031 2285.390625 742.523438 C 2282.941406 738.777344 2276.210938 727.316406 2270.433594 717.0625 C 2264.652344 706.808594 2259.496094 698.414062 2258.972656 698.414062 C 2258.457031 698.414062 2245.910156 713.234375 2231.097656 731.355469" fill-opacity="1" fill-rule="evenodd" />
    <ns0:path fill="#000000" d="M 2520.78125 657.875 C 2520.710938 673.039062 2521.136719 685.441406 2521.726562 685.441406 C 2525.289062 685.441406 2597.882812 658.5 2596.917969 657.535156 C 2595.261719 655.875 2526.054688 630.308594 2523.226562 630.308594 C 2521.949219 630.308594 2520.851562 642.714844 2520.78125 657.875" fill-opacity="1" fill-rule="evenodd" />
    <ns0:path fill="#000000" d="M 2236.21875 634.980469 C 2230.867188 637.257812 2215.71875 643.175781 2202.558594 648.132812 C 2186.691406 654.105469 2180.128906 657.984375 2183.101562 659.628906 C 2187.042969 661.820312 2253.335938 685.441406 2255.539062 685.441406 C 2256.011719 685.441406 2256.234375 673.039062 2256.035156 657.875 C 2255.644531 627.722656 2255 626.984375 2236.21875 634.980469" fill-opacity="1" fill-rule="evenodd" />
    <ns0:path fill="#000000" d="M 2528.203125 559.453125 C 2508.652344 562.910156 2492.132812 566.261719 2491.484375 566.90625 C 2490.84375 567.550781 2493.976562 573.875 2498.453125 580.960938 C 2502.925781 588.046875 2508.90625 599.40625 2511.746094 606.195312 C 2516.179688 616.816406 2517.53125 617.898438 2521.351562 613.886719 C 2530.9375 603.832031 2571.859375 555.222656 2571.859375 553.886719 C 2571.859375 551.910156 2568.371094 552.351562 2528.203125 559.453125" fill-opacity="1" fill-rule="evenodd" />
    <ns0:path fill="#000000" d="M 2229.953125 582.832031 C 2243.984375 600.023438 2257.195312 614.09375 2259.308594 614.09375 C 2261.421875 614.09375 2264.800781 609.347656 2266.816406 603.550781 C 2268.839844 597.757812 2274.214844 587.375 2278.773438 580.488281 C 2283.328125 573.597656 2285.832031 566.835938 2284.335938 565.460938 C 2282.839844 564.085938 2269.214844 561.265625 2254.054688 559.1875 C 2238.894531 557.109375 2221.527344 554.546875 2215.464844 553.492188 L 2204.433594 551.566406 L 2229.953125 582.832031 Z" fill-opacity="1" fill-rule="evenodd" />
    <ns0:path fill="#000000" d="M 2350.734375 548.796875 C 2312.707031 564.148438 2290.839844 587.398438 2279.585938 624.445312 C 2270.496094 654.371094 2272.472656 678.558594 2286.304688 706.65625 C 2328.636719 792.648438 2448.898438 792.109375 2491.414062 705.738281 C 2500.8125 686.640625 2502.039062 681.089844 2501.941406 658.027344 C 2501.796875 623.242188 2492.765625 600.242188 2470.230469 577.273438 C 2446.511719 553.105469 2427.8125 544.910156 2393.542969 543.667969 C 2372.234375 542.890625 2362.464844 544.066406 2350.734375 548.796875" fill-opacity="1" fill-rule="evenodd" />
    <ns0:path fill="#000000" d="M 2463.222656 500.988281 C 2447.167969 513.640625 2433.550781 525.289062 2432.960938 526.863281 C 2432.371094 528.441406 2435.878906 531.25 2440.765625 533.109375 C 2445.648438 534.960938 2456.199219 540.90625 2464.214844 546.316406 C 2474.082031 552.976562 2479.515625 554.964844 2481.054688 552.480469 C 2482.300781 550.460938 2485.785156 535.019531 2488.792969 518.164062 C 2491.804688 501.304688 2495.097656 485.34375 2496.117188 482.695312 C 2499.464844 473.972656 2492.765625 477.699219 2463.222656 500.988281" fill-opacity="1" fill-rule="evenodd" />
    <ns0:path fill="#000000" d="M 2284.1875 486.796875 C 2285.152344 491.707031 2287.695312 508.121094 2289.835938 523.285156 C 2291.976562 538.445312 2294.792969 552.011719 2296.089844 553.429688 C 2297.386719 554.847656 2306.324219 550.820312 2315.949219 544.480469 C 2325.574219 538.140625 2336.015625 532.140625 2339.152344 531.140625 C 2342.285156 530.148438 2344.855469 528.304688 2344.855469 527.046875 C 2344.855469 524.453125 2287.671875 477.878906 2284.488281 477.878906 C 2283.355469 477.878906 2283.222656 481.890625 2284.1875 486.796875" fill-opacity="1" fill-rule="evenodd" />
    <ns0:path fill="#000000" d="M 2374.519531 483.507812 C 2367.121094 502.726562 2361.070312 519.539062 2361.070312 520.867188 C 2361.070312 522.199219 2373.570312 523.285156 2388.851562 523.285156 C 2416.160156 523.285156 2416.597656 523.15625 2414.421875 515.988281 C 2411.445312 506.164062 2390.246094 450.84375 2388.976562 449.574219 C 2388.421875 449.015625 2381.910156 464.289062 2374.519531 483.507812" fill-opacity="1" fill-rule="evenodd" />
  </g></svg>