<?xml version="1.0" encoding="UTF-8"?>
<svg xmlns:ns0="http://www.w3.org/2000/svg" xmlns="http://www.w3.org/2000/svg" viewBox="4358 2497 513 278"><g id="group_29"><ns0:path fill="#000000" d="M 4590.88 2514.86 C 4571.44 2521.25 4550.22 2537.07 4540.95 2552.07 C 4533.96 2563.4 4531.73 2564.89 4524.73 2562.97 C 4520.28 2561.74 4508.6 2560.85 4498.79 2560.98 C 4469.36 2561.38 4445.83 2577.34 4430.98 2606.95 C 4427.18 2614.53 4421.97 2620.74 4419.39 2620.74 C 4412.68 2620.74 4392.37 2639.39 4386.2 2651.21 C 4383.18 2657.02 4380.84 2669.62 4380.69 2680.99 C 4380.33 2708.09 4392.74 2728.55 4417.33 2741.4 L 4434.68 2750.46 L 4592.39 2750.39 C 4769.44 2750.31 4766.32 2750.7 4786.37 2726.37 C 4826.22 2678.03 4791.52 2604.64 4728.76 2604.54 C 4717.3 2604.52 4717.05 2604.23 4711.68 2584.91 C 4702.57 2552.13 4687.6 2533.6 4658.26 2518.75 C 4643.74 2511.4 4607.73 2509.32 4590.88 2514.86" fill-opacity="1" fill-rule="evenodd" style="stroke-width: 1;" />
  </g></svg>