<?xml version="1.0" encoding="UTF-8"?>
<svg xmlns:ns0="http://www.w3.org/2000/svg" xmlns="http://www.w3.org/2000/svg" viewBox="2271 909 883 359"><g id="group_1"><ns0:path style="fill:#000000" d="  M 2345.3523999999998 1231.6722 C 2335.2214 1227.9722 2331.2180999999996 1216.3527 2336.2610999999997 1205.2846 C 2338.1676999999995 1201.1001999999999 2345.6411 1191.2611 2352.8687999999997 1183.4199999999998 L 2366.0100999999995 1169.1634 L 2377.2583999999997 1179.9053 C 2383.4448999999995 1185.8132999999998 2391.8446999999996 1192.3619999999999 2395.9246 1194.4578 L 2403.3424 1198.2685 L 2389.6485 1212.4463999999998 C 2378.6250999999997 1223.8593999999998 2359.4305 1236.3489999999997 2354.8736999999996 1235.0738 C 2354.3867999999998 1234.9376 2350.1022 1233.4068 2345.3523999999998 1231.6722 M 3018.9474999999998 1230.4592 C 3013.6034999999997 1227.7815 3003.7187 1219.8792 2996.9813 1212.8986 L 2984.7316 1200.2066 L 2992.5766 1195.0756 C 2996.8914 1192.2534999999998 3005.2108 1185.2685999999999 3011.0641 1179.5537 L 3021.7066 1169.1629 L 3029.5331 1176.3535 C 3041.3577 1187.2173 3055.3372 1207.33 3055.3372 1213.4785 C 3055.3372 1221.2916 3045.6749 1231.6287 3036.509 1233.6218 C 3032.1942 1234.5601 3024.2915 1233.1369 3018.9475 1230.4591999999998 L 3018.9474999999998 1230.4592  M 2434.7946999999995 1205.3686 C 2375.5278999999996 1189.4095 2350.1681999999996 1149.1537 2339.9949999999994 1054.885 C 2335.7114999999994 1015.1921 2332.2823999999996 1004.8375 2320.6866999999993 996.5805799999999 C 2311.590199999999 990.10336 2311.3932999999993 989.39027 2312.2829999999994 966.14848 C 2313.3521999999994 938.2178399999999 2309.4359999999992 940.6191699999999 2368.1094999999996 931.91694 C 2412.7016999999996 925.3032 2512.0740999999994 924.5154699999999 2548.5459999999994 930.4866099999999 C 2579.494199999999 935.5534299999999 2613.3877999999995 946.60326 2633.6491999999994 958.2316 C 2648.5071999999996 966.75884 2650.2851999999993 967.0142 2693.4132999999993 966.8149999999999 C 2736.8822999999993 966.6142299999999 2738.267999999999 966.3953499999999 2756.173799999999 956.9015999999999 C 2797.563999999999 934.9562699999999 2844.9038999999993 926.8850899999999 2929.816099999999 927.2966299999999 C 2983.195099999999 927.5553299999999 3064.252899999999 935.7898799999999 3074.251999999999 941.9696499999999 C 3075.930199999999 943.0068699999999 3077.303299999999 954.2668399999999 3077.303299999999 966.9918199999998 C 3077.303299999999 988.9907499999998 3076.851599999999 990.4497699999998 3068.1151999999993 996.6706699999999 C 3056.698299999999 1004.8001999999999 3053.232499999999 1015.2219999999999 3048.9151999999995 1054.4052 C 3039.2731999999996 1141.9137999999998 3015.2413999999994 1184.0153 2965.0318999999995 1201.3609 C 2946.9137999999994 1207.62 2937.9595999999997 1208.6305 2901.5738999999994 1208.5217 C 2864.8422999999993 1208.4119 2856.7741999999994 1207.4292 2840.8838999999994 1201.1298 C 2784.3694999999993 1178.7256 2747.018499999999 1133.1765 2724.5337999999992 1059.242 C 2715.2703999999994 1028.7819 2709.6563999999994 1021.8919999999999 2694.2170999999994 1022.0355999999999 C 2678.2878999999994 1022.1836 2672.881799999999 1028.2263 2665.8250999999996 1053.7704999999999 C 2662.3181999999997 1066.4649 2653.2903999999994 1089.5602 2645.7632999999996 1105.0935 C 2618.9309999999996 1160.4654 2583.0768 1192.0901999999999 2532.1788999999994 1205.2792 C 2508.5372999999995 1211.4053 2457.387199999999 1211.4523 2434.7946999999995 1205.3682 L 2434.7946999999995 1205.3686 M 2535.7193999999995 1184.8907 C 2560.7505999999994 1177.1832 2585.0085999999997 1159.8383999999999 2601.5702999999994 1137.8064 C 2627.2604999999994 1103.6308999999999 2644.7778999999996 1047.5444 2639.8842999999993 1015.1342 C 2633.1082999999994 970.25675 2581.0482999999995 946.66683 2488.7152999999994 946.63508 C 2415.6318999999994 946.6099800000001 2384.7457999999992 958.62149 2368.5739999999996 993.35787 C 2361.3098999999997 1008.9608000000001 2360.4093999999996 1014.6828 2360.6191999999996 1043.9019 C 2361.0334 1101.5997 2372.2953999999995 1139.3895 2396.2 1163.294 C 2425.0539999999996 1192.1480000000001 2483.0130999999997 1201.1197000000002 2535.7194 1184.8907000000002 L 2535.7193999999995 1184.8907 M 2450.9744999999994 1185.0168999999999 C 2433.515799999999 1181.5555 2417.2772999999993 1174.4801999999997 2404.6001999999994 1164.8109 C 2392.420699999999 1155.5211 2374.1654999999996 1123.4234 2374.8486999999996 1112.4993 C 2375.1755999999996 1107.2717 2398.1473999999994 1082.6397 2452.9514999999997 1028.7519 L 2530.5912 952.41031 L 2545.8446 954.55002 C 2587.3979999999997 960.379 2620.5687 979.05657 2630.5088 1002.2223 C 2644.9764 1035.9392 2623.4405 1107.8794 2587.505 1145.8759 C 2554.6276000000003 1180.6389 2503.2231 1195.3757 2450.9745000000003 1185.0169 L 2450.9744999999994 1185.0168999999999 M 2367.2590999999993 1085.8342999999998 C 2365.4159999999993 1076.1928999999998 2362.3580999999995 1079.6199999999997 2440.7094999999995 1003.5151999999997 C 2483.7037999999993 961.7536399999997 2497.8805999999995 949.7611599999997 2504.2544999999996 949.7611599999997 C 2508.7667999999994 949.7611599999997 2512.4586999999997 950.8320099999996 2512.4586999999997 952.1408299999997 C 2512.4586999999997 954.9811399999998 2373.6373 1094.1103999999998 2370.8032999999996 1094.1103999999998 C 2369.7240999999995 1094.1103999999998 2368.1291999999994 1090.3860999999997 2367.2590999999998 1085.8342999999998 L 2367.2590999999993 1085.8342999999998 M 2927.9938999999995 1191.2644999999998 C 2986.7828999999997 1182.7672999999998 3014.1698999999994 1154.2279999999998 3025.3839999999996 1089.7767999999999 C 3036.7477999999996 1024.4648 3025.7636999999995 980.4209799999999 2993.3789999999995 961.4446299999998 C 2969.2000999999996 947.2765999999998 2890.4899999999993 942.2194999999998 2836.8708999999994 951.3890399999998 C 2800.3285999999994 957.6382299999998 2771.4146999999994 971.7954799999998 2759.2468999999996 989.3964599999998 C 2742.1609999999996 1014.1115999999998 2745.0128999999997 1056.4823 2766.9255999999996 1103.4789999999998 C 2791.1308999999997 1155.3926 2827.1658999999995 1183.5118999999997 2879.3157999999994 1191.1808999999998 C 2903.731399999999 1194.7713999999999 2903.7315999999996 1194.7713999999999 2927.9938999999995 1191.2649 L 2927.9938999999995 1191.2644999999998 M 2864.2458999999994 1183.4839999999997 C 2828.8011999999994 1173.5360999999998 2797.5881999999992 1149.0250999999996 2778.4074999999993 1116.0764999999997 C 2758.4485999999993 1081.7911999999997 2747.9014999999995 1028.5194999999997 2756.627499999999 1006.0686999999997 C 2770.677599999999 969.9195599999997 2818.852099999999 951.6751599999997 2900.004899999999 951.7695599999997 C 2995.634099999999 951.8807999999997 3023.705999999999 972.7717999999998 3023.805999999999 1043.9018999999998 C 3023.909799999999 1117.7278 2999.090199999999 1166.6438999999998 2954.523199999999 1180.4489999999998 C 2930.550999999999 1187.8745999999999 2885.3091999999992 1189.3955999999998 2864.245899999999 1183.484 L 2864.2458999999994 1183.4839999999997 " id="path1" />
  </g></svg>