<?xml version="1.0" encoding="UTF-8"?>
<svg xmlns:ns0="http://www.w3.org/2000/svg" xmlns="http://www.w3.org/2000/svg" viewBox="17 32 1009 1012"><g id="g20"><ns0:path transform="scale(2 2)" d="M365.489 86.2433C372.54 72.2343 382.76 50.7603 391.231 37.8974C392.592 38.4824 408.916 68.7197 411.496 73.5876C420.04 89.712 416.001 85.2294 432.583 94.0183L469.14 113.333C452.589 122.185 434.003 130.113 418.021 139.277C412.183 149.231 406.127 162.069 400.923 172.5C398.189 177.981 395.796 184.127 392.06 188.997C389.061 184.074 386.495 178.632 383.822 173.518L373.191 153.534C371.181 149.685 368.289 142.953 365.588 139.778C364.575 138.587 318.172 114.648 314.709 113.333C318.389 110.305 323.252 108.168 327.452 105.919C339.989 99.2044 353.261 93.4744 365.489 86.2433ZM392.06 100.189C387.177 107.146 385.181 109.217 378.282 114.228C385.99 120.156 386.257 121.436 392.06 127.892C396.595 120.083 398.78 119.416 405.419 114.228L405.102 113.937C398.425 107.855 397.682 109.343 392.06 100.189Z" />
    <ns0:path transform="scale(2 2)" d="M375.622 435.794C322.992 467.982 262.094 478.016 202.038 461.366C124.138 439.769 63.713 373.774 48.187 294.779C30.3851 204.204 69.9802 114.842 145.86 63.4649C155.026 57.2591 165.819 50.6285 176.118 46.5367C176.318 46.5592 176.188 46.5238 176.421 46.8023C174.371 51.3859 170.493 56.1171 167.983 60.701C134.814 121.268 135.546 198.244 169.985 258.227C227.348 358.134 355.187 392.855 452.751 329.063C457.291 326.095 461.72 322.862 466.42 320.155C465.196 323.275 464.201 326.492 463.011 329.628C445.401 376.065 416.123 408.737 375.622 435.794ZM137.517 271.914C132.417 278.827 130.399 287.909 125.624 295.05C117.904 299.957 109.419 303.824 101.52 308.48C105.964 311.326 123.692 320.49 125.506 322.765C127.674 325.482 136.591 345.065 137.42 345.364L137.517 345.315C139.966 340.529 147.04 325.432 149.77 322.194C155.85 317.104 166.246 312.801 173.288 308.48C166.517 304.006 155.381 299.625 149.77 295.05C145.24 288.541 141.317 276.569 137.517 271.914Z" />
    <ns0:path transform="scale(2 2)" d="M207.649 156.41C210.178 149.846 217.433 134.446 221.455 128.703C223.388 130.851 233.822 152.873 235.299 156.41C243.354 159.746 256.991 165.976 264.22 170.347C255.981 174.087 242.167 178.693 235.299 182.742C230.777 191.54 226.773 200.674 222.534 209.617C222.209 210.218 221.978 210.958 221.382 211.3C219.251 207.167 217.426 202.857 215.494 198.627L207.649 181.82L191.703 174.898C188.046 173.311 184.392 171.58 180.6 170.347C186.246 166.204 200.939 159.351 207.649 156.41Z" />
    <ns0:path transform="scale(2 2)" d="M303.483 229.978C308.462 216.486 318.785 199.43 325.298 186.144C327.134 187.874 331.754 198.164 333.21 200.99L348.219 229.978C361.775 237.877 377.278 245.577 391.231 252.835C386.3 254.976 352.087 274.346 349.471 277.103C346.945 279.764 343.417 288.825 341.551 292.563L332.249 311.206C331.125 313.452 327.097 322.008 326.383 322.592L326.092 322.194C324.591 318.992 322.568 315.945 320.914 312.807C315.806 303.111 307.118 286.894 303.483 277.007C290.747 270.432 270.636 260.884 259.028 252.835C273.351 244.969 288.807 237.439 303.483 229.978ZM326.092 245.214C323.077 248.55 319.974 251.754 316.698 254.836C319.922 257.695 323.067 260.742 326.092 263.812C329.231 260.928 331.83 257.238 335.353 254.836C332.298 251.845 328.649 248.616 326.092 245.214Z" />
  </g></svg>