<?xml version="1.0" encoding="UTF-8"?>
<svg xmlns:ns0="http://www.w3.org/2000/svg" xmlns="http://www.w3.org/2000/svg" viewBox="58 27 941 1002"><g id="g16"><ns0:path transform="scale(2 2)" d="M386.647 170.768C350.129 173.715 318.13 146.514 315.159 109.999C312.188 73.4828 339.367 41.4664 375.881 38.4709C412.429 35.4727 444.482 62.6834 447.456 99.2332C450.43 135.783 423.199 167.818 386.647 170.768ZM377.09 54.8291C349.558 57.2026 329.158 81.4398 331.519 108.973C333.88 136.507 358.107 156.918 385.642 154.57C413.195 152.22 433.622 127.973 431.259 100.422C428.897 72.87 404.641 52.4542 377.09 54.8291Z" />
    <ns0:path transform="scale(2 2)" d="M372.252 110.297L372.252 66.558L388.748 66.558C388.406 75.6978 388.74 84.9789 388.748 94.1337L412.25 94.1337C412.363 99.5112 412.257 104.917 412.25 110.297C402.032 111.463 382.921 110.434 372.252 110.297Z" />
    <ns0:path transform="scale(2 2)" d="M256.376 168.572C233.268 168.761 214.387 150.172 214.217 127.064C214.046 103.956 232.65 85.0901 255.758 84.9375C278.84 84.7851 297.681 103.364 297.851 126.446C298.022 149.528 279.458 168.383 256.376 168.572Z" />
    <ns0:path transform="scale(2 2)" d="M98.0667 285.255C134.869 287.348 159.678 262.88 176.403 232.948C191.782 205.424 197.283 186.174 231.102 174.712C233.466 174.114 252.725 185.833 280.783 174.712C313.527 186.413 320.329 203.352 334.949 231.647C351.19 263.08 377.629 285.631 413.967 285.255C410.571 294.251 405.142 306.207 400.795 315.008C362.922 310.155 333.517 289.019 312.71 257.927C310.666 254.872 308.889 251.519 306.526 248.703L306.255 248.384L306.255 311.862C297.742 314.013 289.079 316.364 280.783 319.248C272.73 321.451 264.776 323.987 256.731 326.203L225.268 317.183C218.831 315.339 212.2 313.107 205.624 311.862L205.619 268.711C205.628 261.935 205.501 255.16 205.624 248.384C182.06 285.765 157.655 308.018 111.258 313.848C107.448 305.979 100.702 293.231 98.0667 285.255Z" />
    <ns0:path transform="scale(2 2)" d="M222.083 353.408C229.854 350.216 238.398 348.359 246.457 345.972L326.535 322.023C332.357 320.332 338.228 318.284 344.205 317.25C360.019 315.443 375.573 325.002 380.577 340.243C387.343 360.85 372.705 381.802 351 382.934C345.168 383.238 339.229 383.02 333.387 383.015L284.172 383.036C273.14 383.046 275.151 383.217 265.375 378.042C264.077 377.075 262.279 376.286 260.87 375.45C248.099 367.884 235.045 360.639 222.083 353.408Z" />
    <ns0:path transform="scale(2 2)" d="M236.361 380.572C237.221 381.126 238.992 382.025 239.213 383.031C238.468 383.38 211.031 383.006 208.583 383.006L174.064 383.006C168.332 383.01 162.308 383.572 156.627 382.76C132.94 379.374 121.998 351.25 135.293 332.146C142.243 322.159 151.027 319.334 162.459 317.25C172.332 317.661 181.597 320.926 191.03 323.578L217.396 330.923C220.797 331.903 226.977 332.99 229.713 334.227L229.673 334.459L229.941 334.396L230.119 334.732C226.488 337.837 199.066 343.676 190.872 348.22C203.348 361.224 221.326 370.796 236.361 380.572Z" />
    <ns0:path transform="scale(2 2)" d="M53.5084 471L53.4998 428.571C53.5011 417.754 49.6183 400.397 64.1521 398.5C64.545 398.454 64.3775 398.463 64.8085 398.462L435.109 398.497C452.651 398.499 458.92 397.356 458.881 415.916L458.867 471C450.803 471.298 442.621 471.009 434.544 471C432.245 469.476 430.3 467.202 428.361 465.249C424.293 461.258 411.065 446.95 407.298 444.998C403.672 444.772 400.009 444.99 396.375 444.995L103.755 444.998C96.7384 449.799 85.1134 464.426 78.3964 471C70.1194 471.253 61.7933 470.908 53.5084 471Z" />
  </g></svg>