<?xml version="1.0" encoding="UTF-8"?>
<svg xmlns:ns0="http://www.w3.org/2000/svg" xmlns="http://www.w3.org/2000/svg" viewBox="291 33 462 996"><g id="g14"><ns0:path transform="scale(2 2)" d="M235.754 80.9159C235.624 64.1496 241.56 48.4835 255.359 37.9652C257.968 38.0082 260.315 41.5505 261.891 43.2868C274.698 57.3972 275.172 63.6556 276.224 80.6725L276.242 80.9159C266.511 87.6391 261.686 95.8229 256.122 105.89L255.787 106.34C254.921 105.648 250.502 96.7021 249.256 94.8726C244.988 88.6039 240.95 85.8909 235.754 80.9159Z" />
    <ns0:path transform="scale(2 2)" d="M243.792 122.988C223.372 123.349 202.784 105.035 204.822 84.2433C225.988 83.5218 242.253 103.109 243.792 122.988Z" />
    <ns0:path transform="scale(2 2)" d="M268.273 122.988C269.41 101.959 283.928 87.7735 304.444 84.2433C305.583 84.1445 306.79 84.2346 307.936 84.2433C306.731 105.512 293.34 120.583 271.814 122.988L268.273 122.988Z" />
    <ns0:path transform="scale(2 2)" d="M248.622 125.718C253.318 125.697 258.014 125.658 262.71 125.718L262.97 125.729L263.239 126.038C263.706 142.21 263.338 158.49 263.337 174.677L263.355 191.847C263.383 195.278 263.608 198.736 263.34 202.158C271.953 181.118 297.357 156.808 321.541 164.749C318.207 190.218 303.278 207.635 278.536 216.153C273.539 217.874 268.211 218.471 263.34 220.5L263.34 261.35C272.969 235.541 308.282 211.583 335.481 222.554C329.433 260.528 298.919 278.624 263.34 280.537L263.34 327.611C265.127 323.686 266.755 319.635 268.815 315.845C285 286.064 322.077 263.546 356.14 275.705C354.29 279.848 353.623 284.473 352.074 288.754C339.044 324.751 300.598 346.134 263.34 345.018C263.148 350.054 263.327 355.153 263.328 360.195L263.347 388.538C263.365 393.248 263.524 397.968 263.34 402.675C277.122 367.973 317.26 334.295 356.14 351.081C349.283 392.551 303.367 420.217 263.34 420.256C263.511 437.007 263.345 453.777 263.34 470.531C258.431 470.434 253.532 470.817 248.622 470.531L248.622 420.256C203.732 419.519 166.544 393.828 155.34 349.739C183.768 341.238 214.065 353.456 232.647 375.586C241.07 385.617 242.323 391.678 248.444 402.368L248.622 402.675C247.805 397.51 248.628 391.92 248.63 386.674L248.622 345.018C210.085 345.271 175.059 326.043 160.562 289.119C158.836 284.725 157.913 280.184 156.482 275.705C159.656 273.855 162.728 273.233 166.381 272.794C203.668 268.318 234.587 295.134 248.622 327.611L248.622 280.537C210.886 277.683 185.6 260.903 175.886 222.554C204.815 212.671 239.151 234.989 248.622 262.391C248.279 248.474 248.613 234.429 248.622 220.5C245.18 218.897 241.235 218.423 237.58 217.449C210.01 210.099 195.04 191.732 190.105 164.749C215.538 158.412 240.455 179.357 248.622 202.158C248.823 198.86 248.643 195.552 248.632 192.251L248.621 174.669C248.618 158.358 248.798 142.027 248.622 125.718Z" />
  </g></svg>