<?xml version="1.0" encoding="UTF-8"?>
<svg xmlns:ns0="http://www.w3.org/2000/svg" xmlns="http://www.w3.org/2000/svg" viewBox="-75 33 1114 1021"><g id="g7"><ns0:path transform="scale(2 2)" d="M364.608 438.875C358.217 442.797 351.423 445.778 344.554 448.741C265.883 482.678 175.171 470.385 110.973 411.756C-13.3751 298.195 36.0445 87.5357 203.585 45.4586C216.317 42.2608 229.068 40.0708 242.209 39.4644C247.006 38.6032 232.107 44.1376 231.75 44.296C131.849 88.6108 87.1798 205.332 134.604 305.02C160.991 360.484 213.786 401.721 273.97 414.123C330.332 425.738 382.538 412.146 429.569 381.177C416.84 402.465 385.385 426.301 364.608 438.875Z" />
    <ns0:path transform="scale(2 2)" d="M431.48 341.829C428.887 344.004 426.427 346.332 423.818 348.489C346.66 412.303 234.027 397.796 175.052 315.275C127.075 248.145 139.059 153.151 199.964 98.4299C206.489 92.5673 213.563 87.5844 220.688 82.4935L220.934 82.7658C220.711 85.0971 216.097 95.7905 214.939 99.1502C198.818 145.923 205.571 198.904 231.548 240.845C274.545 310.267 364.77 339.797 440.21 307.115C450.98 302.449 461.062 296.362 471.016 290.184C463.97 314.028 458.995 338.342 443.083 358.952C444.01 349.547 446.288 333.976 448.412 324.509C442.602 330.123 437.376 336.252 431.48 341.829Z" />
    <ns0:path transform="scale(2 2)" d="M333.796 158.376L334.299 157.972C337.27 155.541 340.994 153.853 344.262 151.811C359.805 142.097 372.683 128.789 383.003 113.711C385.44 110.151 387.3 106.129 390.043 102.8L390.349 102.431C390.681 102.964 390.829 103.655 391.09 104.236C399.737 123.446 427.743 150.463 448.412 158.376C424.148 168.54 401.957 192.208 390.349 215.18C389.221 218.04 387.28 210.827 386.891 210.105C376.028 189.937 355.697 165.116 333.796 158.376Z" />
  </g></svg>