<?xml version="1.0" encoding="UTF-8"?>
<svg xmlns:ns0="http://www.w3.org/2000/svg" xmlns="http://www.w3.org/2000/svg" viewBox="28 200 1022 667"><g id="g2"><ns0:path transform="scale(2 2)" d="M60.3079 177.594C65.6289 168.933 74.2032 159.257 80.3973 150.936L95.2357 130.859C107.518 114.525 107.947 118.198 127.768 118.204L167.251 118.214L183.826 118.214L183.826 149.246L120.928 149.246C114.871 157.938 106.64 169.556 99.6915 177.594L77.3331 177.594L60.3079 177.594Z" />
    <ns0:path transform="scale(2 2)" d="M328.013 118.214L397.86 118.214C411.048 117.734 413.296 126.8 420.754 136.774L451.071 177.594C438.317 177.591 425.551 177.722 412.798 177.594C408.442 171.363 403.698 165.365 399.203 159.228C396.615 155.975 394.316 152.519 391.76 149.246C384.721 149.035 377.61 149.238 370.565 149.239L328.013 149.246C327.604 138.965 328.008 128.512 328.013 118.214Z" />
    <ns0:path transform="scale(2 2)" d="M44.7668 321.785C36.3827 301.946 39.0024 266.076 38.9998 244.242C38.9991 237.957 38.3427 224.902 39.6051 219.337C42.7187 205.613 54.7796 196.359 68.7754 196.236C77.0973 195.547 85.67 196.235 94.0222 196.238L432.058 196.221C437.159 196.219 442.47 195.892 447.535 196.425C480.621 199.909 473.353 243.256 473.446 266.544L473.52 284.138C473.633 313.271 465.209 336.325 444.486 357.84C421.881 381.309 387.756 392.166 355.69 386.841C313.002 379.753 280.607 345.541 273.56 303.263C271.78 292.586 272.048 279.602 263.45 271.609C258.286 266.808 251.179 268.431 246.808 273.425L246.609 273.657C239.228 281.982 240.398 295.329 238.322 305.648C226.052 366.616 164.041 404.573 104.734 381.725C80.4531 372.37 58.4523 353.287 47.8068 329.25L64.2863 329.25C68.5816 325.768 72.436 321.49 76.3461 317.576L161.625 232.479L134.736 232.479C129.952 236.67 125.587 241.54 121.092 246.054L56.2887 310.469C52.4872 314.277 48.486 317.898 44.7668 321.785ZM438.738 231.768C432.509 233.544 420.477 248.026 415.565 253.032L358.934 310.301C352.972 316.282 346.491 322.028 341.214 328.63C345.351 328.692 349.488 328.651 353.625 328.63C358.276 328.623 362.985 328.454 367.629 328.63C374.125 322.281 380.415 315.668 386.795 309.197L440.023 255.659C443.784 251.943 450.623 247.437 450.771 241.693C450.945 234.921 444.709 231.501 438.738 231.768ZM187.136 232.479C183.845 234.199 176.023 242.821 172.843 245.995L104.877 313.731C99.7061 318.958 94.2144 323.872 89.1962 329.25C93.6843 329.259 98.1493 329.089 102.638 329.25L115.799 329.25L188.483 256.929C193.421 252.029 206.197 242.351 198.199 234.772C195.164 231.896 190.995 232.079 187.136 232.479ZM384.906 232.479C382.084 234.538 379.767 237.217 377.363 239.734C359.835 258.091 341.51 275.726 323.699 293.818C317.309 300.309 310.448 306.477 304.385 313.275C299.856 318.352 301.493 322.317 301.291 328.63C308.911 328.58 314.912 328.358 320.916 323.021C324.697 319.578 328.132 315.702 331.694 312.032C349.421 293.771 367.879 276.228 385.658 258.02L401.781 241.483C404.76 238.455 407.68 235.272 410.883 232.479L393.874 232.457C390.89 232.428 387.875 232.116 384.906 232.479Z" />
  </g></svg>