<?xml version="1.0" encoding="UTF-8"?>
<svg xmlns:ns0="http://www.w3.org/2000/svg" xmlns="http://www.w3.org/2000/svg" viewBox="606 70 128 170"><g id="group_5"><ns0:path fill="#000000" opacity="1.00" d=" M 639.73 79.60 C 641.33 77.22 645.49 80.64 644.26 82.86 C 641.71 87.34 637.76 91.50 637.88 97.01 C 637.58 104.27 644.71 108.95 645.24 115.98 C 645.52 120.64 642.57 126.59 637.10 125.80 C 635.24 122.16 640.13 119.68 639.17 116.06 C 637.52 110.39 632.62 106.08 631.93 100.03 C 630.73 92.31 635.30 85.45 639.73 79.60 Z" />
    <ns0:path fill="#000000" opacity="1.00" d=" M 662.44 86.42 C 664.41 85.45 665.55 87.74 666.67 88.90 C 664.27 92.54 660.69 96.27 661.65 101.01 C 662.86 106.99 668.52 111.51 667.91 117.99 C 667.89 121.94 664.82 127.50 660.17 126.14 C 657.62 123.82 661.24 121.30 661.81 118.91 C 662.55 114.29 659.14 110.59 657.36 106.67 C 653.78 99.94 655.98 90.54 662.44 86.42 Z" />
    <ns0:path fill="#000000" opacity="1.00" d=" M 611.34 146.33 C 611.21 140.20 617.03 135.35 622.97 135.66 C 640.99 135.68 659.01 135.62 677.03 135.61 C 683.95 135.58 688.12 142.67 687.71 148.98 C 694.68 149.35 702.18 148.61 708.30 152.74 C 718.63 158.12 722.74 171.08 719.82 181.95 C 717.62 191.33 709.43 198.88 699.96 200.47 C 695.89 200.95 691.78 200.60 687.72 201.11 C 687.92 209.03 684.50 217.41 677.41 221.47 C 671.60 225.11 664.50 224.10 658.00 224.20 C 648.30 224.03 638.59 224.54 628.91 223.88 C 619.65 223.32 611.31 215.27 611.38 205.81 C 611.22 185.98 611.18 166.15 611.34 146.33 M 687.43 160.32 C 687.64 170.07 687.41 179.82 687.42 189.57 C 692.25 189.44 697.24 190.22 701.95 188.90 C 712.63 184.12 713.00 165.71 701.96 161.11 C 697.30 159.54 692.26 160.36 687.43 160.32 Z" />
    <ns0:path fill="#ffffff" opacity="1.00" d=" M 687.43 160.32 C 692.26 160.36 697.30 159.54 701.96 161.11 C 713.00 165.71 712.63 184.12 701.95 188.90 C 697.24 190.22 692.25 189.44 687.42 189.57 C 687.41 179.82 687.64 170.07 687.43 160.32 Z" />
  </g></svg>