<?xml version="1.0" encoding="UTF-8"?>
<svg xmlns:ns0="http://www.w3.org/2000/svg" xmlns="http://www.w3.org/2000/svg" viewBox="1113 290 81 163"><g id="group_7"><ns0:path fill="#000000" opacity="1.00" d=" M 1143.89 302.89 C 1146.58 296.93 1156.30 296.98 1159.15 302.77 C 1161.86 308.07 1159.65 314.07 1158.39 319.47 C 1163.47 316.21 1167.38 310.16 1174.01 310.16 C 1180.09 309.74 1184.67 317.19 1181.44 322.42 C 1178.37 328.23 1171.48 329.44 1165.88 331.53 C 1171.62 333.46 1178.77 334.06 1182.40 339.59 C 1185.62 344.56 1181.86 351.88 1176.00 352.30 C 1169.43 352.57 1164.43 347.62 1159.70 343.78 C 1160.43 349.13 1161.85 354.80 1159.91 360.05 C 1158.86 362.83 1154.60 363.58 1154.93 366.95 C 1154.97 374.04 1155.12 381.14 1155.34 388.23 C 1160.48 376.25 1172.52 365.99 1186.19 367.63 C 1186.43 376.81 1184.05 386.67 1177.13 393.13 C 1171.36 399.26 1163.18 401.94 1155.33 404.26 C 1155.08 415.72 1155.65 427.21 1155.08 438.66 C 1152.72 438.57 1150.38 438.51 1148.04 438.51 C 1147.55 433.45 1147.70 428.36 1147.67 423.29 C 1130.92 421.27 1116.09 406.66 1117.12 389.18 C 1129.47 388.82 1142.23 394.50 1147.68 406.09 C 1147.60 392.28 1147.89 378.47 1147.47 364.67 C 1139.85 360.38 1141.40 350.93 1143.17 343.85 C 1138.28 347.33 1133.50 352.23 1127.05 352.09 C 1121.25 351.81 1117.26 344.56 1120.66 339.67 C 1124.57 334.32 1131.64 333.78 1137.29 331.32 C 1131.61 329.45 1124.60 328.27 1121.45 322.53 C 1118.23 317.26 1123.05 310.03 1129.02 310.23 C 1135.99 310.05 1140.31 316.34 1145.52 319.94 C 1143.79 314.54 1141.22 308.40 1143.89 302.89 M 1147.37 324.24 C 1141.53 327.42 1141.54 337.32 1147.73 340.15 C 1153.34 343.09 1160.88 338.44 1160.25 332.00 C 1160.48 325.56 1152.86 321.49 1147.37 324.24 Z" />
    <ns0:path fill="#fefefe" opacity="1.00" d=" M 1147.37 324.24 C 1152.86 321.49 1160.48 325.56 1160.25 332.00 C 1160.88 338.44 1153.34 343.09 1147.73 340.15 C 1141.54 337.32 1141.53 327.42 1147.37 324.24 Z" />
  </g></svg>