<?xml version='1.0' encoding='UTF-8'?>
<svg xmlns="http://www.w3.org/2000/svg" xmlns:svg="http://www.w3.org/2000/svg" xmlns:c2pa="http://c2pa.org/manifest" width="808.00" height="702.00" version="1.1" id="svg115" style="" viewBox="108.00 163.00 808.00 702.00">
  <defs id="defs1" style=""/>
  <g>
    <path d="m 734.5,184 c 6.053,-1.11 5.766,13.586 11,16 3.774,1.741 12.734,-1.204 15.5,4.5 0.327,3.164 -11.467,10.108 -12,12 -1.134,4.025 5.238,17.163 -0.5,18.5 -2.246,0.523 -12.405,-7.914 -14,-8 -2.655,-0.143 -12.474,8.587 -16,7 -4.506,-2.028 1.977,-15.118 1.5,-17.5 -0.256,-1.277 -10.671,-9.615 -11,-11 -1.841,-7.747 12.997,-4.636 16.5,-6.5 2.935,-1.562 5.348,-14.331 9,-15 z m 0,6 c -5.471,13.114 -7.531,13.35 -21.5,14.5 -0.46,0.584 9.519,8.551 10,11 0.765,3.899 -4.265,10.422 -1.5,14.5 10.705,-7.961 14.303,-7.953 25,0 -1.559,-13.937 -2.611,-16.02 9.5,-24.5 -15.079,-1.914 -14.044,-3.792 -21.5,-15.5 z" fill="#b14b20" id="path2" style=""/>
    <path d="m 410.5,219 c 12.269,-4.055 12.255,16.059 0,12 -4.654,-1.541 -4.652,-10.462 0,-12 z m 2,3 c -4.17,0.848 -1.551,7.502 2,6 2.656,-1.123 2.137,-6.841 -2,-6 z" fill="#b14b20" id="path4" style=""/>
    <path d="m 525.5,238 c 7.347,-3.476 7.992,14.571 13,18 2.325,1.592 14.41,2.64 15.5,6.5 1.861,6.592 -14.313,7.014 -18,12 -1.561,2.112 -3.626,14.547 -6.5,15.5 -6.697,2.221 -7.413,-14.812 -12,-18 -2.143,-1.489 -14.423,-2.984 -15.5,-6.5 -2.221,-7.252 13.635,-7.412 17,-11 2.03,-2.165 4.566,-15.585 6.5,-16.5 z m 22.5,27 c 0.475,-0.363 1.584,-0.66 2,-1.5 0,0 -15,-5.5 -15,-5.5 -2.152,-2.379 -5.898,-16.181 -7.5,-16 -4.484,14.4 -7.119,17.067 -21.5,21.5 12.621,6.188 17.729,6.338 21.5,21.5 5.306,-3.673 3.963,-12.286 9,-16 1.703,-1.256 9.283,-2.307 11.5,-4 z" fill="#b14b20" id="path6" style=""/>
    <path d="m 293.5,248 c 6.905,-2.018 6.357,10.463 10,13 1.003,0.699 10.361,1.448 11.5,4.5 2.807,7.524 -10.129,7.252 -13,11 -1.037,1.354 -2.014,10.5 -5.5,11.5 -7.536,2.163 -6.448,-9.96 -10,-13 -1.801,-1.541 -10.51,-2.113 -11.5,-5.5 -1.825,-6.247 9.709,-6.85 13,-11 1.339,-1.689 2.411,-9.598 5.5,-10.5 z m 1,4 c -3.199,9.995 -7.365,11.422 -15.5,16.5 10.93,1.734 10.967,8.066 16.5,15.5 3.084,-11.314 7.309,-11.186 15.5,-17.5 -10.996,-2.001 -11.882,-5.4 -16.5,-14.5 z" fill="#b14b20" id="path8" style=""/>
    <path d="m 597.5,250 c 8.363,-2.125 7.732,8.874 3,10 -6.221,1.48 -9.15,-8.437 -3,-10 z m 2,3 c -1.709,0.053 -2.311,4.461 1,3 1.433,-0.632 -0.491,-3.016 -1,-3 z" fill="#b14b20" id="path9" style=""/>
    <path d="m 337,381 c 2.009,1.112 3.842,2.814 6,4 3.057,1.681 5.813,3.447 9,5 0.271,0.132 2.853,3.977 4.5,4 0.78,0.011 -0.114,-1.67 1.5,-2 1.97,4.714 8.975,6.632 13,9 9.909,5.83 75.84,47.06 80.5,47 2.248,-0.029 8.387,-5.375 17,-4 14.488,2.314 21.877,23.217 11.5,34 -8.369,8.697 -25.494,5.724 -32,-4 -2.062,-3.081 -3.001,-9.45 -4.5,-13 -34.426,-16.471 -68.519,-33.67 -102.5,-51 -1.648,-0.84 -3.775,-1.375 -5,-2 -2.656,-1.356 -5.359,-2.65 -8,-4 -2.174,-1.111 -4.321,-2.627 -7,-4 -2.239,-1.147 -4.858,-1.901 -7,-3 -2.001,-1.027 -4.044,-1.995 -6,-3 -57.143,-29.351 -113.928,-59.552 -170.5,-90 -15.859,-10.615 -11.174,-31.399 9,-29 64.318,33.287 126.953,70.827 190.5,106 z M 139,281 c -2.797,0.968 -5.515,3.05 -6,6 -1.413,8.596 11.234,15.058 17.5,19 66.218,41.654 171.302,94.3 243.5,126 7.878,2.704 43.518,24.916 48.5,25 3.944,0.067 3.496,-2.276 4.5,-5 0.127,-0.346 3.598,-0.931 0.5,-3 -97.044,-47.079 -191.393,-117.254 -288,-163 -6.308,-2.987 -13.528,-7.413 -20.5,-5 z m 317,168 c -1.256,0.394 -2.013,1.241 -3,2 -10.322,7.934 -4.139,22.78 7,27 7.141,2.705 9.926,3.219 16,-2 14.107,-12.121 -0.558,-33.095 -20,-27 z" fill="#b14b20" id="path13" style=""/>
    <path d="m 716,394 c -1.971,1.01 -4.02,1.987 -6,3 -2.646,1.353 -5.352,2.649 -8,4 -2.412,1.231 -3.906,2.443 -5,3 -4.626,2.357 -9.358,4.643 -14,7 -33.443,16.978 -67.749,32.598 -101.5,49 -2.759,4.354 -2.64,8.314 -5.5,13 -6.744,11.051 -24.409,14.38 -33,4 -14.82,-17.907 12.017,-43.408 30.5,-29 26.422,-15.711 52.795,-31.805 79.5,-47 4.423,-2.517 9.556,-4.469 14,-7 2.339,-1.332 4.63,-3.22 6,-4 2.969,-1.692 6.036,-3.311 9,-5 2.336,-1.331 4.682,-2.68 7,-4 53.233,-30.305 122.569,-77.517 176.5,-101 24.286,-10.575 42.897,0.52 23,23 -56.951,31.322 -114.657,61.374 -172.5,91 z m -139,58 c 0.352,1.693 2.422,4.901 4.5,5 1.497,0.071 23.258,-11.218 27,-13 81.822,-38.968 172.477,-85.05 251,-130 9.25,-5.295 37.307,-17.084 30.5,-29 -0.822,-1.439 -2.394,-3.464 -4,-4 -6.808,-2.272 -14.242,2.121 -20.5,5 -95.39,43.884 -189.403,114.976 -285,161 -2.81,3.229 -4.33,1.006 -3.5,5 z m -29,24 c 5.275,4.449 7.412,4.574 14,3 11.902,-2.843 20.013,-19.497 9,-28 -1.179,-0.911 -0.172,-1.141 -3,-2 -18.978,-5.769 -33.818,15.344 -20,27 z" fill="#b14b20" id="path14" style=""/>
    <path d="m 334.5,286 c 9.424,-3.803 9.631,12.73 0,9 -3.243,-1.256 -3.58,-7.555 0,-9 z m 2,3 c -2.061,-0.113 -0.937,4.016 1,3 0.95,-0.498 1.212,-2.879 -1,-3 z" fill="#b14b20" id="path20" style=""/>
    <path d="m 739.5,299 c 6.667,-0.471 7.28,10.556 1,11 -6.667,0.471 -7.28,-10.556 -1,-11 z m 0,4 c -1.96,0.325 -1.355,3.391 1,3 1.96,-0.325 1.355,-3.391 -1,-3 z" fill="#b14b20" id="path23" style=""/>
    <path d="m 719.5,315 c 11.731,-1.26 8.075,19.406 -3,13 -5.799,-3.354 -2.341,-12.426 3,-13 z m -1,4 c -3.012,1.397 -1.905,7.355 3,6 4.715,-1.303 0.975,-7.843 -3,-6 z" fill="#b14b20" id="path25" style=""/>
    <path d="m 810.5,402 c 8.09,-2.489 5.703,9.279 7.5,12.5 1.671,2.995 13.849,4.518 12,11 -1.176,4.124 -10.232,3.304 -12.5,4.5 -3.292,1.736 -5.929,14.033 -12,12 -2.994,-1.003 -3.147,-11.459 -4.5,-13.5 -2.052,-3.095 -10.563,-3.597 -12,-9 1.858,-6.095 9.174,-3.79 12.5,-5.5 3.42,-1.758 6.517,-11.236 9,-12 z m 1,4 c -4.286,9.684 -8.507,11.568 -18.5,13.5 10.221,4.637 11.939,7.708 14.5,18.5 5.353,-9.8 8.535,-10.597 18.5,-14.5 -10.542,-4.543 -10.606,-7.477 -14.5,-17.5 z" fill="#b14b20" id="path35" style=""/>
    <path d="m 166.5,437 c 6.376,-1.542 6.981,12.974 10,15 3.309,2.22 16.386,0.259 17.5,4.5 0.318,5.134 -11.377,10.334 -12,13 -0.73,3.121 5.683,16.027 0.5,17.5 -4.048,1.15 -12.067,-6.797 -14,-7 -3.086,-0.324 -12.733,7.815 -16,7 -5.166,-1.289 1.21,-14.484 0.5,-17.5 -0.411,-1.747 -11.737,-9.097 -12,-11 -0.957,-6.929 14.453,-4.567 17.5,-6.5 2.095,-1.329 5.105,-14.3 8,-15 z m 1,5 c -6.286,13.174 -6.996,13.794 -21.5,16.5 15.371,7.872 7.837,11.889 9.5,24.5 9.949,-8.118 14.08,-7.8 24,0 3.56,-1.021 -1.914,-12.546 -1.5,-14.5 0.28,-1.32 11.462,-10.322 11,-11 -15.556,0.435 -15.408,-3.106 -21.5,-15.5 z" fill="#b14b20" id="path39" style=""/>
    <path d="m 828.5,547 c 8.779,-2.032 14.353,12.794 18,14 4.73,1.563 20.128,-3.306 21.5,5.5 1.219,7.828 -12.73,12.638 -14,17 -1.313,4.51 2.662,19.526 -4.5,21.5 -8.098,2.232 -12.872,-11.174 -17,-13 -5.973,-2.642 -27.909,2.68 -21.5,-11.5 1.264,-2.796 12.178,-9.178 13,-12 1.514,-5.199 -3.294,-19.696 4.5,-21.5 z m -0.5,11 c -0.26,3.305 0.732,10.071 0,12.5 -0.692,2.297 -19.32,13.514 -12.5,16.5 19.046,-3.314 19.655,3.968 32,14 4.773,-1.26 1.342,-15.523 2.5,-19.5 0.371,-1.275 7.371,-6.725 9,-8.5 1.402,-1.528 3.772,-2.663 5,-4.5 0.523,-5.996 -14.928,-2.46 -18.5,-3.5 -5.789,-1.685 -16.019,-25.81 -17.5,-7 z" fill="#b14b20" id="path57" style=""/>
    <path d="m 233.5,550 c 6.424,-0.96 8.492,8.575 3,10 -7.757,2.012 -9.55,-9.021 -3,-10 z m 0,4 c -1.509,1.405 1.11,3.573 2,3 1.507,-0.97 0.486,-3.935 -2,-3 z" fill="#b14b20" id="path58" style=""/>
    <path d="m 190.5,562 c 11.486,-2.878 13.691,13.701 6,16 -12.773,3.818 -14.739,-13.811 -6,-16 z m 0,4 c -3.124,1.412 -2.119,10.409 4,9 5.992,-1.379 3.401,-12.346 -4,-9 z" fill="#b14b20" id="path68" style=""/>
    <path d="m 184.5,640 c 6.684,-1.25 15.392,17.805 19,19 4.065,1.346 23.702,-0.683 25.5,3.5 3.137,7.297 -17.596,16.175 -19,21 -1.277,4.389 1.175,24.1 -4.5,25.5 -6.474,1.597 -14.477,-17.114 -19,-19 -4.294,-1.791 -23.899,0.228 -25.5,-4.5 -2.56,-7.558 15.935,-14.305 18,-19 2.056,-4.675 -0.657,-25.349 5.5,-26.5 z m -0.5,10 c -0.583,3.7 0.102,14.673 -1,17.5 -1.112,2.853 -19.86,14.089 -17.5,16.5 6.238,2.302 18.597,0.36 24,3 2.393,1.169 11.994,18.152 15,17 3.167,-20.016 -2.399,-18.724 12.5,-32 2.4,-2.138 7.911,-4.123 7.5,-8 -6.153,-2.502 -16.818,0.508 -22,-1 -2.657,-0.773 -12.946,-16.203 -16,-19 -2.13,1.626 -2.131,3.655 -2.5,6 z" fill="#b14b20" id="path97" style=""/>
    <path d="m 808.5,643 c 11.257,-3.213 15.183,13.614 6,16 -12.681,3.295 -14.129,-13.679 -6,-16 z m 1,4 c -4.602,1.564 -2.764,10.19 3,9 5.037,-1.04 4.482,-11.542 -3,-9 z" fill="#b14b20" id="path99" style=""/>
  </g>
  <g>
    <path d="m 734.5,190 c 7.456,11.708 6.421,13.586 21.5,15.5 -12.111,8.48 -11.059,10.563 -9.5,24.5 -10.697,-7.953 -14.295,-7.961 -25,0 -2.765,-4.078 2.265,-10.601 1.5,-14.5 -0.481,-2.449 -10.46,-10.416 -10,-11 13.969,-1.15 16.029,-1.386 21.5,-14.5 z" fill="#fbde2d" id="path3" style=""/>
    <path d="m 535,258 c 3.95,4.367 8.675,3.617 13,7 -2.217,1.693 -9.797,2.744 -11.5,4 -5.037,3.714 -3.694,12.327 -9,16 -3.771,-15.162 -8.879,-15.312 -21.5,-21.5 14.381,-4.433 17.016,-7.1 21.5,-21.5 1.602,-0.181 5.348,13.621 7.5,16 z" fill="#fbde2d" id="path7" style=""/>
    <path d="m 294.5,252 c 4.618,9.1 5.504,12.499 16.5,14.5 -8.191,6.314 -12.416,6.186 -15.5,17.5 -5.533,-7.434 -5.57,-13.766 -16.5,-15.5 8.135,-5.078 12.301,-6.505 15.5,-16.5 z" fill="#fbde2d" id="path10" style=""/>
    <path d="m 139,281 c 0,0 308,171 308,171 -1.004,2.724 -0.556,5.067 -4.5,5 -4.982,-0.084 -40.622,-22.296 -48.5,-25 3.155,1.385 20.315,10.023 21.5,10 0.146,-0.003 1.616,-1.34 2.5,-1.5 0,0 -1.5,-1.5 -1.5,-1.5 0,0 -283.5,-152 -283.5,-152 0.485,-2.95 3.203,-5.032 6,-6 z" fill="#fbde2d" id="path17" style=""/>
    <path d="m 890,285 c -15.616,11.207 -32.72,20.672 -49.5,30 -65.392,36.354 -131.743,72.263 -198,107 -3.216,1.686 -38.612,20.506 -39.5,18.5 0,0 3,-4.5 3,-4.5 93.424,-51.47 186.327,-103.974 280,-155 1.606,0.536 3.178,2.561 4,4 z" fill="#fbde2d" id="path18" style=""/>
    <path d="m 890,285 c 6.807,11.916 -21.25,23.705 -30.5,29 -78.523,44.95 -169.178,91.032 -251,130 -3.742,1.782 -25.503,13.071 -27,13 -2.078,-0.099 -4.148,-3.307 -4.5,-5 9.69,-5.263 19.342,-10.679 29,-16 0,0 -3,4.5 -3,4.5 0.888,2.006 36.284,-16.814 39.5,-18.5 66.257,-34.737 132.608,-70.646 198,-107 16.78,-9.328 33.884,-18.793 49.5,-30 z" fill="#fbde2d" id="path19" style=""/>
    <path d="M 394,432 C 321.802,400.3 216.718,347.654 150.5,306 c -6.266,-3.942 -18.913,-10.404 -17.5,-19 0,0 283.5,152 283.5,152 0,0 1.5,1.5 1.5,1.5 -0.884,0.16 -2.354,1.497 -2.5,1.5 -1.185,0.023 -18.345,-8.615 -21.5,-10 z" fill="#fbde2d" id="path21" style=""/>
    <path d="m 811.5,406 c 3.894,10.023 3.958,12.957 14.5,17.5 -9.965,3.903 -13.147,4.7 -18.5,14.5 -2.561,-10.792 -4.279,-13.863 -14.5,-18.5 9.993,-1.932 14.214,-3.816 18.5,-13.5 z" fill="#fbde2d" id="path38" style=""/>
    <path d="m 167.5,442 c 6.092,12.394 5.944,15.935 21.5,15.5 0.462,0.678 -10.72,9.68 -11,11 -0.414,1.954 5.06,13.479 1.5,14.5 -9.92,-7.8 -14.051,-8.118 -24,0 -1.663,-12.611 5.871,-16.628 -9.5,-24.5 14.504,-2.706 15.214,-3.326 21.5,-16.5 z" fill="#fbde2d" id="path40" style=""/>
    <path d="m 476,476 c -6.074,5.219 -8.859,4.705 -16,2 11.883,0.136 -3.698,-6.643 -6,-13.5 -1.761,-5.246 0.366,-8.747 -1,-13.5 0.987,-0.759 1.744,-1.606 3,-2 15.964,0.942 26.307,10.571 20,27 z" fill="#fbde2d" id="path43" style=""/>
    <path d="m 571,451 c 0.221,4.468 1.326,7.945 0,12.5 -1.931,6.635 -16.041,12.193 -9,15.5 -6.588,1.574 -8.725,1.449 -14,-3 -6.531,-14.967 5.226,-26.601 20,-27 2.828,0.859 1.821,1.089 3,2 z" fill="#fbde2d" id="path44" style=""/>
    <path d="m 460,478 c -11.139,-4.22 -17.322,-19.066 -7,-27 1.366,4.753 -0.761,8.254 1,13.5 2.302,6.857 17.883,13.636 6,13.5 z" fill="#fbde2d" id="path46" style=""/>
    <path d="m 562,479 c -7.041,-3.307 7.069,-8.865 9,-15.5 1.326,-4.555 0.221,-8.032 0,-12.5 11.013,8.503 2.902,25.157 -9,28 z" fill="#fbde2d" id="path47" style=""/>
    <path d="m 859,573 c -1.629,1.775 -8.629,7.225 -9,8.5 -1.158,3.977 2.273,18.24 -2.5,19.5 -12.345,-10.032 -12.954,-17.314 -32,-14 -6.82,-2.986 11.808,-14.203 12.5,-16.5 0.732,-2.429 -0.26,-9.195 0,-12.5 7.851,-1.2 11.367,8.466 17.5,11 2.658,1.098 11.391,-0.27 13.5,4 z" fill="#fbde2d" id="path65" style=""/>
    <path d="m 375.5,560 c 7.693,-1.976 9.754,8.522 4,10 -7.693,1.976 -9.754,-8.522 -4,-10 z" fill="#fbde2d" id="path66" style=""/>
    <path d="m 647.5,560 c 6.54,-0.56 7.486,10.142 1,11 -7.899,1.045 -7.757,-10.421 -1,-11 z" fill="#fbde2d" id="path67" style=""/>
    <path d="m 511.5,579 c 9.07,-1.115 8.014,14.212 -2,11 -5.824,-1.868 -3.042,-10.38 2,-11 z" fill="#fbde2d" id="path74" style=""/>
    <path d="m 341,749 c 6.776,2.635 57.507,18.391 60.5,17 0,0 1.5,-2.5 1.5,-2.5 0,0 -37,-126.5 -37,-126.5 -0.202,-1.569 0.301,-3.568 0,-5 4.15,-5.128 7.16,-15.348 0,-19 0.68,-1.421 0.46,-5.892 3,-5.5 0,0 45,162 45,162 -2.78,3.425 -65.426,-15.223 -73,-20.5 z" fill="#fbde2d" id="path88" style=""/>
    <path d="m 702,740 c 0,0 -46,-101 -46,-101 1.696,-6.315 2.363,-13.377 6,-19 16.572,37.539 30.307,76.424 48,113.5 0.595,4.212 -5.728,5.079 -8,6.5 z" fill="#fbde2d" id="path92" style=""/>
    <path d="m 341,749 c -6.727,-2.616 -13.887,-5.127 -20,-9 0,0 45,-103 45,-103 0,0 37,126.5 37,126.5 0,0 -1.5,2.5 -1.5,2.5 -2.993,1.391 -53.724,-14.365 -60.5,-17 z" fill="#fbde2d" id="path95" style=""/>
    <path d="m 702,740 c -21.402,13.386 -57.162,23.792 -82,28 11.605,-43.088 24.428,-85.907 36,-129 z" fill="#fbde2d" id="path96" style=""/>
    <path d="m 569,772 c -1.491,3.833 -6.973,5.636 -10,2.5 0,0 -49,-118.5 -49,-118.5 1.796,-5.345 2.073,-11.482 6,-16 12.829,29.463 47.535,104.587 53,132 z" fill="#fbde2d" id="path98" style=""/>
    <path d="m 217,672 c -14.899,13.276 -9.333,11.984 -12.5,32 -3.006,1.152 -12.607,-15.831 -15,-17 -5.403,-2.64 -17.762,-0.698 -24,-3 -2.36,-2.411 16.388,-13.647 17.5,-16.5 1.102,-2.827 0.417,-13.8 1,-17.5 7.435,1.849 12.144,13.09 17.5,16 2.93,1.592 12.919,1.213 15.5,6 z" fill="#fbde2d" id="path102" style=""/>
    <path d="m 569,772 c 0.273,1.371 1.773,4.291 0.5,5 -34.558,1.976 -73.181,5.613 -107.5,0 15.224,-40.497 34.214,-79.966 48,-121 0,0 49,118.5 49,118.5 3.027,3.136 8.509,1.333 10,-2.5 z" fill="#fbde2d" id="path103" style=""/>
    <path d="m 510.5,806 c 7.891,-1.527 10.012,9.105 4,11 -8.827,2.782 -11.342,-9.579 -4,-11 z" fill="#fbde2d" id="path115" style=""/>
  </g>
  <g>
    <path d="m 412.5,222 c 4.137,-0.841 4.656,4.877 2,6 -3.551,1.502 -6.17,-5.152 -2,-6 z" fill="#fefefe" id="path5" style=""/>
    <path d="m 599.5,253 c 0.509,-0.016 2.433,2.368 1,3 -3.311,1.461 -2.709,-2.947 -1,-3 z" fill="#fefefe" id="path11" style=""/>
    <path d="m 336.5,289 c 2.212,0.121 1.95,2.502 1,3 -1.937,1.016 -3.061,-3.113 -1,-3 z" fill="#fefefe" id="path22" style=""/>
    <path d="m 739.5,303 c 2.355,-0.391 2.96,2.675 1,3 -2.355,0.391 -2.96,-2.675 -1,-3 z" fill="#fefefe" id="path24" style=""/>
    <path d="m 718.5,319 c 3.975,-1.843 7.715,4.697 3,6 -4.905,1.355 -6.012,-4.603 -3,-6 z" fill="#fefefe" id="path26" style=""/>
    <path d="m 682,385 c -2.964,1.689 -6.031,3.308 -9,5 -99.638,-37.195 -221.471,-37.246 -321,0 -3.187,-1.553 -5.943,-3.319 -9,-5 45.115,-19.825 100.157,-28.392 149.5,-30 62.774,-2.046 131.593,5.593 189.5,30 z" fill="#fefefe" id="path28" style=""/>
    <path d="m 653,401 c -26.705,15.195 -53.078,31.289 -79.5,47 -18.483,-14.408 -45.32,11.093 -30.5,29 -5.056,4.492 -23,7.363 -8.5,15 11.115,5.855 46.941,6.453 60,5 4.922,-0.548 29.803,-4.501 28.5,-11.5 -1.677,-9.005 -39.827,-9.76 -47,-12.5 2.86,-4.686 2.741,-8.646 5.5,-13 33.751,-16.402 68.057,-32.022 101.5,-49 65.553,45.743 21.176,87.77 -34.5,108 -78.159,28.399 -208.454,28.457 -285,-5 -39.536,-17.281 -79.179,-51.932 -36,-92 3.442,-3.194 14.162,-7.099 13.5,-12 33.981,17.33 68.074,34.529 102.5,51 1.499,3.55 2.438,9.919 4.5,13 -7.508,-0.822 -68.829,7.028 -38.5,19 14.87,5.87 63.275,6.088 78,0 16.29,-6.734 1.522,-12.841 -7.5,-15 10.377,-10.783 2.988,-31.686 -11.5,-34 -8.613,-1.375 -14.752,3.971 -17,4 -4.66,0.06 -70.591,-41.17 -80.5,-47 29.105,-12.63 63.784,-19.305 95.5,-22 60.534,-5.143 130.66,-0.813 186.5,22 z" fill="#fefefe" id="path31" style=""/>
    <path d="m 314,397 c 2.142,1.099 4.761,1.853 7,3 -15.928,15.583 -35.857,25.623 -39,50 -3.435,2.26 -3.38,12.032 -3,15.5 1.9,17.347 23.199,37.112 37.5,45.5 2.208,1.295 2.857,2.009 5.5,1 89.986,57.094 287.94,56.691 378.5,1 54.282,-33.381 57.457,-77.93 1.5,-112 2.648,-1.351 5.354,-2.647 8,-4 56.749,30.814 62.655,78.24 8.5,117 -93.389,66.841 -330.438,66.455 -421,-6 -49.158,-39.33 -32.771,-83.607 16.5,-111 z" fill="#fefefe" id="path33" style=""/>
    <path d="m 476,476 c 6.307,-16.429 -4.036,-26.058 -20,-27 19.442,-6.095 34.107,14.879 20,27 z" fill="#fefefe" id="path41" style=""/>
    <path d="m 568,449 c -14.774,0.399 -26.531,12.033 -20,27 -13.818,-11.656 1.022,-32.769 20,-27 z" fill="#fefefe" id="path42" style=""/>
    <path d="m 353,543 c -4.638,7.044 -0.567,18.969 -2,27 -0.197,1.102 -1.309,3.587 -3,3 -42.52,-16.848 -91.159,-42.122 -83,-96.5 0,0 15,22 15,22 20.26,20.326 46.194,34.494 73,44.5 z" fill="#fefefe" id="path51" style=""/>
    <path d="m 438,563 c -8.759,5.492 -3.717,17.105 -5,26 -28.354,-4.201 -54.802,-9.963 -82,-19 1.433,-8.031 -2.638,-19.956 2,-27 27.391,10.224 56.038,16.033 85,20 z m -64.5,-7 c -9.244,2.467 -7.055,20.776 6,19 11.501,-1.564 10.28,-23.344 -6,-19 z" fill="#fefefe" id="path56" style=""/>
    <path d="m 233.5,554 c 2.486,-0.935 3.507,2.03 2,3 -0.89,0.573 -3.509,-1.595 -2,-3 z" fill="#fefefe" id="path61" style=""/>
    <path d="m 190.5,566 c 7.401,-3.346 9.992,7.621 4,9 -6.119,1.409 -7.124,-7.588 -4,-9 z" fill="#fefefe" id="path71" style=""/>
    <path d="m 488,568 c 0,0 0,26 0,26 -7.07,-0.319 -13.863,-0.395 -21,-1 2.14,-11.986 -6.207,-20.583 7.5,-23 1.843,-0.325 -5.064,-1.954 -0.5,-3 4.673,0.295 9.344,0.826 14,1 z" fill="#fefefe" id="path72" style=""/>
    <path d="m 670,583 c 0,0 58,139 58,139 -0.167,0.101 -1.597,2.652 -2.5,3 0,0 -60.5,-139.5 -60.5,-139.5 -0.143,-6.001 4.677,-2.315 5,-2.5 z" fill="#fefefe" id="path75" style=""/>
    <path d="m 365.5,585 c 6.378,-2.499 1.459,12.457 0.5,15.5 -5.911,18.756 -44.95,114.521 -54,128 -1.246,1.856 -1.581,4.003 -4.5,3.5 0,0 -3.5,-3.5 -3.5,-3.5 z" fill="#fefefe" id="path76" style=""/>
    <path d="m 651.5,587 c 5.697,-2.257 3.314,5.679 2.5,10.5 -6.965,41.247 -30.031,109.884 -43,152 -1.758,5.709 -5.597,25.654 -12.5,23.5 z" fill="#fefefe" id="path77" style=""/>
    <path d="m 386,593 c 1.554,2.463 1.216,6.403 3,9 0,0 48,169 48,169 -3.275,8.91 -6.765,-4.07 -8,-7.5 -16.351,-45.426 -33.536,-112.343 -45,-160 -0.744,-3.092 -3.772,-13.201 -1,-13 1.847,0.606 2.035,0.971 3,2.5 z" fill="#fefefe" id="path79" style=""/>
    <path d="m 377,597 c 19.128,56.917 32.017,117.734 48.5,175 -5.956,1.399 -6.809,-4.176 -8.5,-8.5 C 410.542,746.99 371.141,604.486 373,596 Z" fill="#fefefe" id="path83" style=""/>
    <path d="m 509.5,606 c 0.35,-0.15 4.784,-0.126 5,0 1.353,0.79 -8.205,26.038 -9.5,29.5 -17.353,46.403 -38.698,91.538 -56,138 0,0 -6.5,1.5 -6.5,1.5 z" fill="#fefefe" id="path86" style=""/>
    <path d="m 527,607 c -0.156,3.444 3.058,6.602 4,9 20.521,52.244 40.774,104.64 61,157 -2.238,1.543 -3.31,1.602 -5,-0.5 0,0 -65,-166 -65,-166 1.37,-1.799 4.703,0.579 5,0.5 z" fill="#fefefe" id="path87" style=""/>
    <path d="m 217,672 c -2.581,-4.787 -12.57,-4.408 -15.5,-6 -5.356,-2.91 -10.065,-14.151 -17.5,-16 0.369,-2.345 0.37,-4.374 2.5,-6 3.054,2.797 13.343,18.227 16,19 5.182,1.508 15.847,-1.502 22,1 0.411,3.877 -5.1,5.862 -7.5,8 z" fill="#fefefe" id="path100" style=""/>
    <path d="m 809.5,647 c 7.482,-2.542 8.037,7.96 3,9 -5.764,1.19 -7.602,-7.436 -3,-9 z" fill="#fefefe" id="path101" style=""/>
    <path d="m 274.5,667 c 2.481,28.424 -1.335,43.182 22,63 85.003,72.19 328.631,68.482 420,8 29.025,-19.213 33.779,-36.415 32,-71 33.028,57.238 -49.454,92.265 -92,105 -82.981,24.838 -190.149,25.222 -274,4 -45.919,-11.622 -140.657,-46.101 -108,-109 z" fill="#fefefe" id="path104" style=""/>
    <path d="m 347,770 c -5.114,5.307 -2.852,17.221 -3,25 -0.022,1.151 0.545,2.925 -1,3 -35.577,-14.697 -81.225,-38.945 -76,-84.5 17.432,28.78 49.173,45.388 80,56.5 z" fill="#fefefe" id="path106" style=""/>
    <path d="m 434,790 c 1.167,4.119 -4.249,4.216 -5,6.5 -1.301,3.956 0.96,14.672 0,19.5 -29.066,-4.425 -57.064,-12.097 -85,-21 0.148,-7.779 -2.114,-19.693 3,-25 27.991,10.09 57.55,15.945 87,20 z" fill="#fefefe" id="path109" style=""/>
    <path d="m 492,795 c 0,0 0,27 0,27 -7.985,0.042 -16.078,-1.412 -24,-2 1.318,-8.117 -2.39,-19.325 1,-26 7.735,0.582 15.255,0.726 23,1 z" fill="#fefefe" id="path112" style=""/>
  </g>
  <g>
    <path d="m 548,265 c -4.325,-3.383 -9.05,-2.633 -13,-7 0,0 15,5.5 15,5.5 -0.416,0.84 -1.525,1.137 -2,1.5 z" fill="#f9f7db" id="path12" style=""/>
    <path d="m 447,452 c 0,0 -308,-171 -308,-171 6.972,-2.413 14.192,2.013 20.5,5 96.607,45.746 190.956,115.921 288,163 3.098,2.069 -0.373,2.654 -0.5,3 z" fill="#f9f7db" id="path15" style=""/>
    <path d="m 886,281 c -93.673,51.026 -186.576,103.53 -280,155 -9.658,5.321 -19.31,10.737 -29,16 -0.83,-3.994 0.69,-1.771 3.5,-5 95.597,-46.024 189.61,-117.116 285,-161 6.258,-2.879 13.692,-7.272 20.5,-5 z" fill="#f9f7db" id="path16" style=""/>
    <path d="m 697,404 c 98.455,62.332 -4.642,116.639 -70.5,133 -85.705,21.291 -243.407,19.841 -314.5,-39 0,0 5,-3.5 5,-3.5 -40.442,-32.842 -20.131,-66.333 19,-86.5 1.225,0.625 3.352,1.16 5,2 0.662,4.901 -10.058,8.806 -13.5,12 -43.179,40.068 -3.536,74.719 36,92 76.546,33.457 206.841,33.399 285,5 55.676,-20.23 100.053,-62.257 34.5,-108 4.642,-2.357 9.374,-4.643 14,-7 z" fill="#f9f7db" id="path37" style=""/>
    <path d="m 859,573 c -2.109,-4.27 -10.842,-2.902 -13.5,-4 -6.133,-2.534 -9.649,-12.2 -17.5,-11 1.481,-18.81 11.711,5.315 17.5,7 3.572,1.04 19.023,-2.496 18.5,3.5 -1.228,1.837 -3.598,2.972 -5,4.5 z" fill="#f9f7db" id="path60" style=""/>
    <path d="m 474,567 c -4.564,1.046 2.343,2.675 0.5,3 -13.707,2.417 -5.36,11.014 -7.5,23 -11.551,-0.979 -22.514,-2.298 -34,-4 1.283,-8.895 -3.759,-20.508 5,-26 11.981,1.641 23.909,3.236 36,4 z" fill="#f9f7db" id="path69" style=""/>
    <path d="m 488,594 c 0,0 0,-26 0,-26 33.166,1.243 65.223,-0.585 98,-5 0,0 3,3.5 3,3.5 0.196,4.439 -31.024,3.156 -32,6 0,0 -0.5,21.5 -0.5,21.5 -12.67,0.845 -25.308,0.746 -38,1 -11.15,0.223 -18.86,-0.475 -30.5,-1 z m 21.5,-19 c -10.093,1.884 -9.713,17.955 -1,20 17.407,4.085 18.567,-23.28 1,-20 z" fill="#f9f7db" id="path70" style=""/>
    <path d="m 761,689 c 65.175,59.113 -6.836,107.256 -62.5,128 -105.225,39.214 -275.656,38.892 -380,-3 -53.767,-21.587 -116.649,-69.061 -55.5,-125 -5.943,44.684 2.842,70.216 40.5,95 96.283,63.368 303.812,62.486 404,8 45.558,-24.776 60.379,-50.399 53.5,-103 z" fill="#f9f7db" id="path105" style=""/>
    <path d="m 469,794 c -3.39,6.675 0.318,17.883 -1,26 -13.16,-0.976 -25.959,-2.014 -39,-4 0.96,-4.828 -1.301,-15.544 0,-19.5 0.751,-2.284 6.167,-2.381 5,-6.5 11.713,1.613 23.181,3.111 35,4 z" fill="#f9f7db" id="path111" style=""/>
  </g>
  <g>
    <path d="m 689,381 c -2.318,1.32 -4.664,2.669 -7,4 -57.907,-24.407 -126.726,-32.046 -189.5,-30 -49.343,1.608 -104.385,10.175 -149.5,30 -2.158,-1.186 -3.991,-2.888 -6,-4 110.458,-41.724 241.318,-40.533 352,0 z" fill="#874e3e" id="path27" style=""/>
    <path d="m 673,390 c -1.37,0.78 -3.661,2.668 -6,4 -4.123,-3.711 -12.239,-6.362 -17.5,-8 -73.415,-22.859 -173.179,-23.756 -248,-7 -14.406,3.226 -29.632,10.167 -43.5,13 -1.614,0.33 -0.72,2.011 -1.5,2 -1.647,-0.023 -4.229,-3.868 -4.5,-4 99.529,-37.246 221.362,-37.195 321,0 z" fill="#874e3e" id="path29" style=""/>
    <path d="m 314,397 c -49.271,27.393 -65.658,71.67 -16.5,111 90.562,72.455 327.611,72.841 421,6 54.155,-38.76 48.249,-86.186 -8.5,-117 1.98,-1.013 4.029,-1.99 6,-3 22.216,13.763 40.145,32.043 45,58.5 3.105,16.917 4.918,46.064 -1,62 -1.956,5.266 -11.412,16.481 -12,19 -1.398,5.989 -1.393,117.001 0,123 1.945,8.376 10.944,16.775 13,32.5 6.879,52.601 -7.942,78.224 -53.5,103 -100.188,54.486 -307.717,55.368 -404,-8 -37.658,-24.784 -46.443,-50.316 -40.5,-95 2.051,-15.418 11.18,-24.311 13,-32.5 1.454,-6.543 1.456,-116.764 0,-123 -0.594,-2.544 -10.051,-13.711 -12,-19 -7.991,-21.68 -2.93,-70.693 10,-90 7.991,-11.932 22.617,-22.037 34,-30.5 1.956,1.005 3.999,1.973 6,3 z m 272,166 c -32.777,4.415 -64.834,6.243 -98,5 -4.656,-0.174 -9.327,-0.705 -14,-1 -12.091,-0.764 -24.019,-2.359 -36,-4 -28.962,-3.967 -57.609,-9.776 -85,-20 -26.806,-10.006 -52.74,-24.174 -73,-44.5 0,0 -15,-22 -15,-22 -8.159,54.378 40.48,79.652 83,96.5 96.276,38.149 237.37,38.18 333,-2 24.882,-10.454 59.543,-27.827 72,-53 6.659,-13.455 8.112,-28.146 4.5,-43 -27.978,59.526 -111.418,79.906 -171.5,88 z M 292,718 c 0,0 7.5,8 7.5,8 0,0 1.5,-1.5 1.5,-1.5 15.437,-44.537 40.56,-88.422 56,-132.5 1.605,-4.582 4.594,-6.74 0.5,-10 -10.392,-8.275 -46.767,-18.977 -64.5,-32 -4.044,-2.97 -7.872,-9.376 -13,-10.5 0,0 1,160 1,160 2.892,6.547 4.762,14.188 11,18.5 z M 670,583 c -0.323,0.185 -5.143,-3.501 -5,2.5 0,0 60.5,139.5 60.5,139.5 0.903,-0.348 2.333,-2.899 2.5,-3 7.972,-4.84 11.292,-13.441 15,-21.5 0,0 1,-161 1,-161 -11.367,7.475 -21.629,16.689 -33.5,23.5 -12.901,7.402 -26.462,10.908 -39,17 -1.832,0.89 -1.354,2.917 -1.5,3 z m -304.5,2 c 0,0 -61.5,143.5 -61.5,143.5 0,0 3.5,3.5 3.5,3.5 2.919,0.503 3.254,-1.644 4.5,-3.5 9.05,-13.479 48.089,-109.244 54,-128 0.959,-3.043 5.878,-17.999 -0.5,-15.5 z m 286,2 c 0,0 -53,186 -53,186 6.903,2.154 10.742,-17.791 12.5,-23.5 12.969,-42.116 36.035,-110.753 43,-152 0.814,-4.821 3.197,-12.757 -2.5,-10.5 z M 373,596 c -1.859,8.486 37.542,150.99 44,167.5 1.691,4.324 2.544,9.899 8.5,8.5 -16.483,-57.266 -29.372,-118.083 -48.5,-175 -0.604,-1.796 -0.043,-5.156 -1.5,-7 -2.31,0.22 -2.173,4.508 -2.5,6 z m 64,175 c 19.888,-51.29 45.27,-103.084 63,-155 0.509,-1.492 5.231,-10.195 2.5,-11 -16.205,0.954 -34.742,-0.079 -51,-2 -21.898,-2.587 -44.008,-8.911 -65.5,-10 -0.965,-1.529 -1.153,-1.894 -3,-2.5 -2.772,-0.201 0.256,9.908 1,13 11.464,47.657 28.649,114.574 45,160 1.235,3.43 4.725,16.41 8,7.5 z m 90,-164 c -0.297,0.079 -3.63,-2.299 -5,-0.5 0,0 65,166 65,166 1.69,2.102 2.762,2.043 5,0.5 4.096,-2.824 0.808,-3.875 2,-7.5 16.818,-51.139 34.946,-113.172 47,-165.5 0.334,-1.452 3.683,-8.583 3,-9.5 -17.682,1.698 -35.629,7.994 -53.5,10.5 -19.577,2.746 -46.22,1.423 -63.5,6 z m 133.5,-16 c 0,0 -1.5,10.5 -1.5,10.5 20.071,37.577 31.832,88.614 52,125 3.784,6.827 6.77,8.031 9,0 z m -151,15 c 0,0 -67,169 -67,169 0,0 6.5,-1.5 6.5,-1.5 17.302,-46.462 38.647,-91.597 56,-138 1.295,-3.462 10.853,-28.71 9.5,-29.5 -0.216,-0.126 -4.65,-0.15 -5,0 z M 366,613 c -1.33,2.78 -2.03,5.854 -3,8 -16.982,37.564 -32.699,75.631 -49,113.5 0.136,2.44 5.139,4.321 7,5.5 6.113,3.873 13.273,6.384 20,9 7.574,5.277 70.22,23.925 73,20.5 0,0 -45,-162 -45,-162 -2.54,-0.392 -2.32,4.079 -3,5.5 z m 254,155 c 24.838,-4.208 60.598,-14.614 82,-28 2.272,-1.421 8.595,-2.288 8,-6.5 -17.693,-37.076 -31.428,-75.961 -48,-113.5 -1.783,-4.039 -3.865,-8.211 -5,-12.5 -0.519,-0.955 -1.772,0.565 -2,1 -7.54,14.375 -21.468,75.046 -27,95 -6.005,21.662 -10.914,43.646 -18,65 0,0 1.5,2.5 1.5,2.5 0.438,0.107 7.407,-2.815 8.5,-3 z M 518.5,614 c -2.452,2.751 -3.746,5.714 -3.5,9.5 0.348,5.366 17.613,46.166 21,55 12.195,31.805 26.694,62.817 38,95 2.951,3.851 4.378,2.261 8.5,1.5 z M 462,777 c 34.319,5.613 72.942,1.976 107.5,0 1.273,-0.709 -0.227,-3.629 -0.5,-5 -5.465,-27.413 -40.171,-102.537 -53,-132 -0.621,-1.427 -2.131,-8.795 -3,-9.5 -20.683,46.673 -41.035,96.925 -58.5,145.5 2.581,1.546 5.061,0.601 7.5,1 z M 274.5,667 c -32.657,62.899 62.081,97.378 108,109 83.851,21.222 191.019,20.838 274,-4 42.546,-12.735 125.028,-47.762 92,-105 1.779,34.585 -2.975,51.787 -32,71 -91.369,60.482 -334.997,64.19 -420,-8 -23.335,-19.818 -19.519,-34.576 -22,-63 z M 343,798 c 94.389,38.993 233.354,39.465 329,4 26.585,-9.857 63.491,-27.562 78,-53 6.702,-11.751 8.471,-22.496 6.5,-36 -25.249,43.282 -85.773,62.242 -132.5,72 -10.272,2.145 -20.605,3.551 -31,5 -10.277,1.433 -20.646,3.151 -31,4 -23.508,1.928 -46.471,1.833 -70,1 -7.745,-0.274 -15.265,-0.418 -23,-1 -11.819,-0.889 -23.287,-2.387 -35,-4 -29.45,-4.055 -59.009,-9.91 -87,-20 -30.827,-11.112 -62.568,-27.72 -80,-56.5 -5.225,45.555 40.423,69.803 76,84.5 z" fill="#874e3e" id="path32" style=""/>
    <path d="m 328,404 c -43.098,24.731 -59.391,58.086 -16,94 71.093,58.841 228.795,60.291 314.5,39 65.858,-16.361 168.955,-70.668 70.5,-133 1.094,-0.557 2.588,-1.769 5,-3 55.957,34.07 52.782,78.619 -1.5,112 -90.56,55.691 -288.514,56.094 -378.5,-1 -21.661,-13.744 -43.59,-34.158 -40,-62 3.143,-24.377 23.072,-34.417 39,-50 2.679,1.373 4.826,2.889 7,4 z" fill="#874e3e" id="path34" style=""/>
  </g>
  <g>
    <path d="m 667,394 c -4.444,2.531 -9.577,4.483 -14,7 -55.84,-22.813 -125.966,-27.143 -186.5,-22 -31.716,2.695 -66.395,9.37 -95.5,22 -4.025,-2.368 -11.03,-4.286 -13,-9 13.868,-2.833 29.094,-9.774 43.5,-13 74.821,-16.756 174.585,-15.859 248,7 5.261,1.638 13.377,4.289 17.5,8 z" fill="#dee1e2" id="path30" style=""/>
    <path d="m 336,408 c -39.131,20.167 -59.442,53.658 -19,86.5 0,0 -5,3.5 -5,3.5 -43.391,-35.914 -27.098,-69.269 16,-94 2.641,1.35 5.344,2.644 8,4 z" fill="#dee1e2" id="path36" style=""/>
    <path d="m 282,450 c -3.59,27.842 18.339,48.256 40,62 -2.643,1.009 -3.292,0.295 -5.5,-1 -14.301,-8.388 -35.6,-28.153 -37.5,-45.5 -0.38,-3.468 -0.435,-13.24 3,-15.5 z" fill="#dee1e2" id="path45" style=""/>
    <path d="m 543,477 c 8.591,10.38 26.256,7.051 33,-4 7.173,2.74 45.323,3.495 47,12.5 1.303,6.999 -23.578,10.952 -28.5,11.5 -13.059,1.453 -48.885,0.855 -60,-5 -14.5,-7.637 3.444,-10.508 8.5,-15 z" fill="#dee1e2" id="path48" style=""/>
    <path d="m 480,478 c 9.022,2.159 23.79,8.266 7.5,15 -14.725,6.088 -63.13,5.87 -78,0 -30.329,-11.972 30.992,-19.822 38.5,-19 6.506,9.724 23.631,12.697 32,4 z" fill="#dee1e2" id="path49" style=""/>
    <path d="m 753,518 c 0,0 -2,-1 -2,-1 0.428,-2.538 -1.901,-11.441 -1.5,-15 -14.543,15.82 -33.01,27.333 -52,37 -15.174,7.725 -30.389,3.876 -23.5,28 -5.198,1.883 -12.47,8.324 -19,6 11.436,-10.134 -9.495,-25.675 -16,-12 -4.133,-3.636 -6.12,0.908 -6.5,1 -2.442,0.589 -16.306,2.171 -17,3 -1.885,2.252 0.758,16.471 -0.5,19.5 -0.942,2.267 -27.786,4.752 -18.5,8.5 8.443,3.408 71.956,-18.992 84.5,-22 -95.63,40.18 -236.724,40.149 -333,2 1.691,0.587 2.803,-1.898 3,-3 27.198,9.037 53.646,14.799 82,19 11.486,1.702 22.449,3.021 34,4 7.137,0.605 13.93,0.681 21,1 11.64,0.525 19.35,1.223 30.5,1 12.692,-0.254 25.33,-0.155 38,-1 0,0 0.5,-21.5 0.5,-21.5 0.976,-2.844 32.196,-1.561 32,-6 0,0 -3,-3.5 -3,-3.5 60.082,-8.094 143.522,-28.474 171.5,-88 3.612,14.854 2.159,29.545 -4.5,43 z" fill="#dee1e2" id="path50" style=""/>
    <path d="m 624,785 c -4.945,5.164 0.085,20.759 -2,25.5 -0.731,1.662 -22.897,5.558 -24,4 -0.853,-3.736 1.146,-17.779 0,-20 -0.325,-0.629 -5.685,-0.064 -5,-4.5 10.395,-1.449 20.728,-2.855 31,-5 z" fill="#dee1e2" id="path110" style=""/>
    <path d="m 562,794 c 0,0 -0.5,26 -0.5,26 0,0 -46.5,2 -46.5,2 11.351,-2.217 9.591,-23.953 -6.5,-20 -8.389,2.061 -5.474,10.189 -5.5,15 -0.018,3.399 1.52,3.499 -1.5,5 -3.167,0.012 -6.345,-0.017 -9.5,0 0,0 0,-27 0,-27 23.529,0.833 46.492,0.928 70,-1 z" fill="#dee1e2" id="path113" style=""/>
  </g>
  <g>
    <path d="m 751,517 c -2.368,14.034 -51.246,41.392 -64.5,47 -3.88,1.642 -10.95,2.438 -12.5,3 -6.889,-24.124 8.326,-20.275 23.5,-28 18.99,-9.667 37.457,-21.18 52,-37 -0.401,3.559 1.928,12.462 1.5,15 z" fill="#afb1b1" id="path52" style=""/>
    <path d="m 753,518 c -12.457,25.173 -47.118,42.546 -72,53 -12.544,3.008 -76.057,25.408 -84.5,22 -9.286,-3.748 17.558,-6.233 18.5,-8.5 1.258,-3.029 -1.385,-17.248 0.5,-19.5 0.694,-0.829 14.558,-2.411 17,-3 0.38,-0.092 2.367,-4.636 6.5,-1 -5.026,10.566 8.059,19.037 16,12 6.53,2.324 13.802,-4.117 19,-6 1.55,-0.562 8.62,-1.358 12.5,-3 13.254,-5.608 62.132,-32.966 64.5,-47 z" fill="#afb1b1" id="path53" style=""/>
    <path d="m 750,749 c -14.509,25.438 -51.415,43.143 -78,53 -4.272,-6.272 5.821,-4.683 7,-7.5 1.602,-3.828 -2.237,-15.666 1.5,-19.5 0.805,-0.826 16.111,-5.579 19,-7 19.088,-9.388 37.79,-19.75 52,-36 z" fill="#afb1b1" id="path108" style=""/>
  </g>
  <path d="m 293,550 c -2.729,1.259 0.011,5.159 0,6 -0.683,53.969 -1.57,108.001 -1,162 -6.238,-4.312 -8.108,-11.953 -11,-18.5 0,0 -1,-160 -1,-160 5.128,1.124 8.956,7.53 13,10.5 z" fill="#ff8e95" id="path54" style=""/>
  <g>
    <path d="m 728,722 c 0,0 -58,-139 -58,-139 0.146,-0.083 -0.332,-2.11 1.5,-3 12.538,-6.092 26.099,-9.598 39,-17 11.871,-6.811 22.133,-16.025 33.5,-23.5 0,0 -1,161 -1,161 -3.708,8.059 -7.028,16.66 -15,21.5 z" fill="#ce3337" id="path55" style=""/>
    <path d="m 357,592 c -22.815,-9.466 -44.878,-20.233 -64,-36 0.011,-0.841 -2.729,-4.741 0,-6 17.733,13.023 54.108,23.725 64.5,32 4.094,3.26 1.105,5.418 -0.5,10 z" fill="#ce3337" id="path59" style=""/>
    <path d="m 641,600 c -35.794,10.042 -72.9,13.848 -110,16 -0.942,-2.398 -4.156,-5.556 -4,-9 17.28,-4.577 43.923,-3.254 63.5,-6 17.871,-2.506 35.818,-8.802 53.5,-10.5 0.683,0.917 -2.666,8.048 -3,9.5 z" fill="#ce3337" id="path80" style=""/>
    <path d="m 500,616 c -37.477,-0.752 -74.468,-6.334 -111,-14 -1.784,-2.597 -1.446,-6.537 -3,-9 21.492,1.089 43.602,7.413 65.5,10 16.258,1.921 34.795,2.954 51,2 2.731,0.805 -1.991,9.508 -2.5,11 z" fill="#ce3337" id="path82" style=""/>
  </g>
  <g>
    <path d="m 357,592 c -15.44,44.078 -40.563,87.963 -56,132.5 0,0 -1.5,1.5 -1.5,1.5 0,0 -7.5,-8 -7.5,-8 -0.57,-53.999 0.317,-108.031 1,-162 19.122,15.767 41.185,26.534 64,36 z" fill="#ee4347" id="path62" style=""/>
    <path d="m 641,600 c -12.054,52.328 -30.182,114.361 -47,165.5 -1.192,3.625 2.096,4.676 -2,7.5 -20.226,-52.36 -40.479,-104.756 -61,-157 37.1,-2.152 74.206,-5.958 110,-16 z" fill="#ee4347" id="path84" style=""/>
    <path d="m 500,616 c -17.73,51.916 -43.112,103.71 -63,155 0,0 -48,-169 -48,-169 36.532,7.666 73.523,13.248 111,14 z" fill="#ee4347" id="path85" style=""/>
  </g>
  <g>
    <path d="m 373.5,556 c 16.28,-4.344 17.501,17.436 6,19 -13.055,1.776 -15.244,-16.533 -6,-19 z m 2,4 c -5.754,1.478 -3.693,11.976 4,10 5.754,-1.478 3.693,-11.976 -4,-10 z" fill="#574d3c" id="path63" style=""/>
    <path d="m 655,573 c -7.941,7.037 -21.026,-1.434 -16,-12 6.505,-13.675 27.436,1.866 16,12 z m -7.5,-13 c -6.757,0.579 -6.899,12.045 1,11 6.486,-0.858 5.54,-11.56 -1,-11 z" fill="#574d3c" id="path64" style=""/>
    <path d="m 509.5,575 c 17.567,-3.28 16.407,24.085 -1,20 -8.713,-2.045 -9.093,-18.116 1,-20 z m 2,4 c -5.042,0.62 -7.824,9.132 -2,11 10.014,3.212 11.07,-12.115 2,-11 z" fill="#574d3c" id="path73" style=""/>
    <path d="m 515,822 c -4.669,0.912 -9.66,-0.518 -12,-5 0.026,-4.811 -2.889,-12.939 5.5,-15 16.091,-3.953 17.851,17.783 6.5,20 z m -4.5,-16 c -7.342,1.421 -4.827,13.782 4,11 6.012,-1.895 3.891,-12.527 -4,-11 z" fill="#574d3c" id="path114" style=""/>
  </g>
  <path d="m 377,597 c 0,0 -4,-1 -4,-1 0.327,-1.492 0.19,-5.78 2.5,-6 1.457,1.844 0.896,5.204 1.5,7 z" fill="#969496" id="path78" style=""/>
  <g>
    <path d="m 660.5,591 c 0,0 59.5,135.5 59.5,135.5 -2.23,8.031 -5.216,6.827 -9,0 -20.168,-36.386 -31.929,-87.423 -52,-125 z" fill="#f0bd28" id="path81" style=""/>
    <path d="m 518.5,614 c 0,0 64,161 64,161 -4.122,0.761 -5.549,2.351 -8.5,-1.5 -11.306,-32.183 -25.805,-63.195 -38,-95 -3.387,-8.834 -20.652,-49.634 -21,-55 -0.246,-3.786 1.048,-6.749 3.5,-9.5 z" fill="#f0bd28" id="path91" style=""/>
  </g>
  <g>
    <path d="m 662,620 c -3.637,5.623 -4.304,12.685 -6,19 -11.572,43.093 -24.395,85.912 -36,129 -1.093,0.185 -8.062,3.107 -8.5,3 0,0 -1.5,-2.5 -1.5,-2.5 7.086,-21.354 11.995,-43.338 18,-65 5.532,-19.954 19.46,-80.625 27,-95 0.228,-0.435 1.481,-1.955 2,-1 1.135,4.289 3.217,8.461 5,12.5 z" fill="#fcf0b3" id="path89" style=""/>
    <path d="m 366,632 c 0.301,1.432 -0.202,3.431 0,5 0,0 -45,103 -45,103 -1.861,-1.179 -6.864,-3.06 -7,-5.5 16.301,-37.869 32.018,-75.936 49,-113.5 0.995,3.586 2.236,7.372 3,11 z" fill="#fcf0b3" id="path93" style=""/>
    <path d="m 516,640 c -3.927,4.518 -4.204,10.655 -6,16 -13.786,41.034 -32.776,80.503 -48,121 -2.439,-0.399 -4.919,0.546 -7.5,-1 17.465,-48.575 37.817,-98.827 58.5,-145.5 0.869,0.705 2.379,8.073 3,9.5 z" fill="#fcf0b3" id="path94" style=""/>
  </g>
  <path d="m 366,632 c -0.764,-3.628 -2.005,-7.414 -3,-11 0.97,-2.146 1.67,-5.22 3,-8 7.16,3.652 4.15,13.872 0,19 z" fill="#fddf53" id="path90" style=""/>
  <path d="m 750,749 c 0,0 1.5,-17 1.5,-17 -14.21,16.25 -32.912,26.612 -52,36 -2.889,1.421 -18.195,6.174 -19,7 -3.737,3.834 0.102,15.672 -1.5,19.5 -1.179,2.817 -11.272,1.228 -7,7.5 -95.646,35.465 -234.611,34.993 -329,-4 1.545,-0.075 0.978,-1.849 1,-3 27.936,8.903 55.934,16.575 85,21 13.041,1.986 25.84,3.024 39,4 7.922,0.588 16.015,2.042 24,2 3.155,-0.017 6.333,0.012 9.5,0 3.02,-1.501 1.482,-1.601 1.5,-5 2.34,4.482 7.331,5.912 12,5 0,0 46.5,-2 46.5,-2 0,0 0.5,-26 0.5,-26 10.354,-0.849 20.723,-2.567 31,-4 -0.685,4.436 4.675,3.871 5,4.5 1.146,2.221 -0.853,16.264 0,20 1.103,1.558 23.269,-2.338 24,-4 2.085,-4.741 -2.945,-20.336 2,-25.5 46.727,-9.758 107.251,-28.718 132.5,-72 1.971,13.504 0.202,24.249 -6.5,36 z" fill="#c3c5c6" id="path107" style=""/>
  <metadata xmlns:rdf="http://www.w3.org/1999/02/22-rdf-syntax-ns#" xmlns:dc="http://purl.org/dc/elements/1.1/" xmlns:xmp="adobe:ns:meta/">
    <xmp:xmpmeta>
      <rdf:RDF>
        <rdf:Description rdf:about="">
          <dc:title>
            <rdf:Alt>
              <rdf:li xml:lang="x-default">Cartoon drum with drumsticks and star decorations</rdf:li>
            </rdf:Alt>
          </dc:title>
          <dc:subject>
            <rdf:Bag>
              <rdf:li>drum</rdf:li>
              <rdf:li>drums</rdf:li>
              <rdf:li>musical instrument</rdf:li>
              <rdf:li>music</rdf:li>
              <rdf:li>cartoon</rdf:li>
              <rdf:li>art</rdf:li>
              <rdf:li>illustration</rdf:li>
              <rdf:li>fun</rdf:li>
              <rdf:li>colorful</rdf:li>
              <rdf:li>design</rdf:li>
              <rdf:li>creative</rdf:li>
              <rdf:li>red</rdf:li>
              <rdf:li>yellow</rdf:li>
              <rdf:li>white</rdf:li>
              <rdf:li>beat</rdf:li>
              <rdf:li>sound</rdf:li>
              <rdf:li>rhythm</rdf:li>
              <rdf:li>percussion</rdf:li>
              <rdf:li>instrument</rdf:li>
              <rdf:li>star</rdf:li>
              <rdf:li>stars</rdf:li>
              <rdf:li>decorative</rdf:li>
              <rdf:li>celebration</rdf:li>
              <rdf:li>play</rdf:li>
              <rdf:li>pattern</rdf:li>
              <rdf:li>kid</rdf:li>
              <rdf:li>child</rdf:li>
              <rdf:li>toy</rdf:li>
              <rdf:li>bright</rdf:li>
              <rdf:li>concert</rdf:li>
              <rdf:li>performance</rdf:li>
              <rdf:li>stage</rdf:li>
              <rdf:li>band</rdf:li>
              <rdf:li>drummer</rdf:li>
              <rdf:li>beat</rdf:li>
              <rdf:li>play</rdf:li>
              <rdf:li>rhythm</rdf:li>
              <rdf:li>melody</rdf:li>
              <rdf:li>musical</rdf:li>
              <rdf:li>instrument</rdf:li>
              <rdf:li>festive</rdf:li>
            </rdf:Bag>
          </dc:subject>
        </rdf:Description>
      </rdf:RDF>
    </xmp:xmpmeta>
  </metadata>
</svg>
