<svg width="24" height="24" viewBox="0 0 24 24" fill="none" xmlns="http://www.w3.org/2000/svg" preserveAspectRatio="xMinYMid meet">
  <g transform="matrix(1, 0, 0, 1, 0.046, -0.049501)">
    <path d="M 19.5 12.099 C 19.5 16.793 15.694 20.599 11 20.599 C 6.306 20.599 2.5 16.793 2.5 12.099 C 2.5 7.405 6.306 3.599 11 3.599 C 12.725 3.599 14.33 4.113 15.67 4.996 C 15.182 5.518 14.882 6.231 14.882 7.016 C 14.882 8.617 16.13 9.915 17.669 9.915 C 18.191 9.915 18.679 9.766 19.097 9.506 C 19.359 10.323 19.5 11.195 19.5 12.099 Z" stroke="#212529" stroke-width="1" fill="none"></path>
    <path d="M 9 8.599 L 9 15.599 L 15 12.099 L 9 8.599 Z" fill="#212529"></path>
    <path fill-rule="evenodd" clip-rule="evenodd" d="M 17.908 3.5 C 15.975 3.5 14.408 5.067 14.408 7 C 14.408 8.933 15.975 10.5 17.908 10.5 C 19.841 10.5 21.408 8.933 21.408 7 C 21.408 5.067 19.841 3.5 17.908 3.5 Z M 19.761 6.146 C 19.956 6.341 19.956 6.658 19.761 6.853 L 17.761 8.853 C 17.566 9.049 17.249 9.049 17.054 8.853 L 16.054 7.853 C 15.859 7.658 15.859 7.341 16.054 7.146 C 16.249 6.951 16.566 6.951 16.761 7.146 L 17.408 7.793 L 19.054 6.146 C 19.249 5.951 19.566 5.951 19.761 6.146 Z" fill="#212529"></path>
  </g>
</svg>